<svg xmlns="http://www.w3.org/2000/svg" viewBox="0 0 512 512" role="img" aria-label="awfulface mark">
  <!-- Deterministic vector derivative of public/favicon.svg: dark identity only; SVG strokes expanded to filled contours, no raster tracing. -->
  <path d="M 366.882250,64.795205 L 367.701561,63.882241 L 368.427440,62.893366 L 369.052897,61.838105 L 369.571909,60.726620 L 369.979476,59.569614 L 370.271675,58.378232 L 370.445691,57.163945 L 370.499848,55.938450 L 370.433625,54.713546 L 370.247659,53.501033 L 369.943742,52.312585 L 369.524800,51.159650 L 368.994867,50.053330 L 368.359049,49.004279 L 367.623466,48.022601 L 366.795205,47.117750 L 365.882241,46.298439 L 364.893366,45.572560 L 363.838105,44.947103 L 362.726620,44.428091 L 361.569614,44.020524 L 360.378232,43.728325 L 359.163945,43.554309 L 357.938450,43.500152 L 356.713546,43.566375 L 355.501033,43.752341 L 354.312585,44.056258 L 353.159650,44.475200 L 352.053330,45.005133 L 351.004279,45.640951 L 213.351094,138.601544 L 212.652641,137.385120 L 212.279821,136.776719 L 211.356210,135.361788 L 210.965351,134.797491 L 209.944517,133.406866 L 209.541974,132.887678 L 208.423919,131.521358 L 208.015505,131.047004 L 206.800227,129.704990 L 206.391042,129.274171 L 205.078542,127.956463 L 204.672888,127.567119 L 203.263166,126.273716 L 202.864536,125.923271 L 201.357592,124.654173 L 200.968709,124.339749 L 199.364543,123.094957 L 198.987440,122.813545 L 197.286051,121.593058 L 196.922156,121.341650 L 195.123545,120.145469 L 194.773781,119.921150 L 192.877948,118.749275 L 192.542826,118.549287 L 190.549770,117.401718 L 190.229475,117.223498 L 188.139197,116.100234 L 187.833658,115.941429 L 185.646158,114.842471 L 185.355115,114.700945 L 183.070393,113.626292 L 182.793450,113.500122 L 180.411506,112.449775 L 180.148167,112.337238 L 177.669001,111.311196 L 177.418709,111.210758 L 174.842321,110.209022 L 174.604481,110.119320 L 171.930870,109.141889 L 171.704870,109.061716 L 168.934036,108.108591 L 168.719259,108.036880 L 165.851203,107.108060 L 165.647040,107.043868 L 162.681763,106.139354 L 162.487621,106.081849 L 159.425121,105.201640 L 159.240430,105.150088 L 156.080708,104.294185 L 155.904920,104.247937 L 152.647975,103.416339 L 152.480568,103.374823 L 149.126401,102.567532 L 148.966882,102.530242 L 145.515493,101.747256 L 145.363396,101.713746 L 141.814784,100.955065 L 141.669671,100.924939 L 138.023837,100.190564 L 137.885295,100.163471 L 134.142239,99.453401 L 134.009883,99.429030 L 130.169605,98.743266 L 130.043073,98.721341 L 126.105573,98.059883 L 125.984527,98.040159 L 121.949805,97.403006 L 121.833929,97.385264 L 117.701985,96.772417 L 117.590984,96.756461 L 113.361818,96.167920 L 113.255416,96.153578 L 108.929027,95.589342 L 108.826967,95.576459 L 104.403356,95.036528 L 104.305397,95.024964 L 99.784563,94.509339 L 99.690480,94.498968 L 95.072424,94.007649 L 94.982006,93.998362 L 90.266728,93.531348 L 90.179779,93.523043 L 85.367279,93.080334 L 85.283616,93.072922 L 80.373893,92.654519 L 80.293343,92.647917 L 75.286399,92.253819 L 75.208800,92.247955 L 70.104634,91.878163 L 70.029837,91.872969 L 64.828448,91.527483 L 63.601939,91.506340 L 62.379263,91.605517 L 61.172195,91.824060 L 59.992361,92.159864 L 58.851122,92.609694 L 57.759470,93.169220 L 56.727918,93.833052 L 55.766400,94.594797 L 54.884176,95.447120 L 54.089743,96.381811 L 53.390750,97.389870 L 52.793930,98.461588 L 52.305031,99.586644 L 51.928761,100.754203 L 51.668744,101.953021 L 51.527483,103.171552 L 51.506340,104.398061 L 51.605517,105.620737 L 51.824060,106.827805 L 52.159864,108.007639 L 52.609694,109.148878 L 53.169220,110.240530 L 53.833052,111.272082 L 54.594797,112.233600 L 55.447120,113.115824 L 56.381811,113.910257 L 57.389870,114.609250 L 58.461588,115.206070 L 59.586644,115.694969 L 60.754203,116.071239 L 61.953021,116.331256 L 63.171552,116.472517 L 68.335535,116.815518 L 73.363503,117.179789 L 78.291371,117.567663 L 83.118985,117.979068 L 87.846176,118.413929 L 92.472768,118.872159 L 96.998570,119.353663 L 101.423379,119.858336 L 105.746976,120.386060 L 109.969130,120.936702 L 114.089591,121.510116 L 118.108091,122.106137 L 122.024346,122.724582 L 125.838049,123.365243 L 129.548873,124.027890 L 133.156469,124.712263 L 136.660461,125.418067 L 140.060451,126.144973 L 143.356014,126.892608 L 146.546696,127.660552 L 149.632018,128.448328 L 152.611471,129.255400 L 155.484520,130.081157 L 158.250603,130.924910 L 160.909139,131.785876 L 163.459523,132.663170 L 165.901143,133.555788 L 168.233381,134.462595 L 170.455630,135.382307 L 172.567310,136.313478 L 174.567892,137.254481 L 176.456923,138.203495 L 178.234071,139.158490 L 179.899163,140.117224 L 181.452251,141.077237 L 182.893672,142.035865 L 184.224138,142.990271 L 185.444815,143.937485 L 186.557428,144.874489 L 187.564350,145.798328 L 188.468689,146.706255 L 189.274348,147.595933 L 189.986041,148.465658 L 190.609247,149.314617 L 191.150083,150.143153 L 191.615082,150.952994 L 191.897658,151.520164 L 192.226280,153.629275 L 192.469466,155.184775 L 192.428091,155.273380 L 192.020524,156.430386 L 191.728325,157.621768 L 191.554309,158.836055 L 191.500152,160.061550 L 191.566375,161.286454 L 191.752341,162.498967 L 192.056258,163.687415 L 192.475200,164.840350 L 193.005133,165.946670 L 193.640951,166.995721 L 194.376534,167.977399 L 194.504401,168.117090 L 194.935846,170.834849 L 195.441506,174.006337 L 195.935096,177.088032 L 196.416625,180.079977 L 196.886102,182.982222 L 197.343537,185.794821 L 197.788942,188.517838 L 198.222331,191.151344 L 198.224448,191.164170 L 198.643719,193.695420 L 198.646007,193.709187 L 199.053126,196.150159 L 199.055606,196.164976 L 199.450571,198.515670 L 199.453268,198.531660 L 199.836081,200.792076 L 199.839025,200.809385 L 200.209684,202.979523 L 200.212910,202.998320 L 200.571416,205.078181 L 200.574965,205.098666 L 200.921319,207.088250 L 200.925242,207.110662 L 201.259443,209.009968 L 201.263802,209.034592 L 201.585850,210.843620 L 201.590720,210.870801 L 201.900616,212.589551 L 201.906091,212.619707 L 202.203834,214.248180 L 202.210034,214.281828 L 202.495624,215.820022 L 202.502699,215.857805 L 202.776137,217.305722 L 202.784283,217.348450 L 203.045568,218.706089 L 203.055043,218.754800 L 203.304175,220.022161 L 203.315324,220.078202 L 203.552303,221.255285 L 203.565601,221.320441 L 203.790428,222.407247 L 203.806542,222.483932 L 204.019216,223.480459 L 204.039115,223.572017 L 204.239636,224.478267 L 204.264773,224.589468 L 204.453141,225.405440 L 204.485796,225.543325 L 204.662011,226.269019 L 204.705948,226.444420 L 204.870011,227.079837 L 204.931867,227.310297 L 205.083777,227.855436 L 205.176284,228.171266 L 205.316041,228.626127 L 205.466527,229.084241 L 205.594132,229.448825 L 205.601261,229.467341 L 205.675135,231.221320 L 205.687155,231.454776 L 205.814759,233.551131 L 205.832345,233.799288 L 205.996407,235.827934 L 206.020575,236.091902 L 206.221096,238.052839 L 206.253039,238.333784 L 206.490018,240.227013 L 206.531137,240.526148 L 206.804574,242.351669 L 206.856505,242.670236 L 207.166401,244.428048 L 207.231053,244.767293 L 207.577407,246.457397 L 207.656997,246.818527 L 208.039810,248.440923 L 208.136900,248.825055 L 208.556170,250.379743 L 208.673697,250.787834 L 209.129426,252.274813 L 209.270724,252.707559 L 209.762911,254.126830 L 209.931720,254.584550 L 210.460366,255.936113 L 210.660809,256.418601 L 211.225913,257.702455 L 211.462438,258.208801 L 212.064000,259.424947 L 212.341263,259.953349 L 212.979284,261.101787 L 213.301967,261.649345 L 213.976446,262.730074 L 214.348987,263.292610 L 215.059925,264.305631 L 215.486166,264.877558 L 216.233562,265.822871 L 216.716314,266.397159 L 217.500169,267.274763 L 218.040739,267.843048 L 218.861052,268.652944 L 219.458784,269.205821 L 220.315555,269.948008 L 220.967467,270.475517 L 221.860696,271.149996 L 222.561305,271.642278 L 223.490992,272.249049 L 224.232405,272.697095 L 225.198551,273.236157 L 225.970845,273.632543 L 226.973449,274.103897 L 227.765316,274.443368 L 228.804379,274.847014 L 229.603937,275.126826 L 230.679458,275.462764 L 231.475098,275.682725 L 232.587077,275.950954 L 233.368216,276.113189 L 234.516654,276.313710 L 235.274287,276.422209 L 236.459183,276.555022 L 237.186196,276.615091 L 238.407550,276.680196 L 239.098797,276.697890 L 240.356609,276.695286 L 241.008804,276.676908 L 242.303075,276.606595 L 242.914560,276.558303 L 244.245289,276.420283 L 244.815741,276.347819 L 246.182929,276.142090 L 246.713052,276.050612 L 248.116698,275.777175 L 248.607940,275.671186 L 250.048045,275.330040 L 250.502352,275.213376 L 251.978914,274.804522 L 252.398531,274.680384 L 253.911552,274.203821 L 254.298871,274.074837 L 255.848350,273.530566 L 256.205797,273.398857 L 257.791734,272.786878 L 258.121688,272.654132 L 259.744084,271.974445 L 260.048828,271.841987 L 261.707682,271.094591 L 261.989367,270.963442 L 263.684680,270.148338 L 263.945312,270.019272 L 265.677082,269.136460 L 266.957915,268.384480 L 268.140512,267.485888 L 270.432613,265.518874 L 270.444453,265.508700 L 272.654089,263.607658 L 272.666804,263.596703 L 274.793975,261.761634 L 274.807667,261.749805 L 276.852372,259.980707 L 276.867157,259.967895 L 278.829396,258.264770 L 278.845410,258.250847 L 280.725185,256.613694 L 280.742588,256.598509 L 282.539897,255.027328 L 282.558877,255.010702 L 284.273720,253.505494 L 284.294502,253.487212 L 285.926881,252.047976 L 285.949733,252.027778 L 287.499646,250.654514 L 287.524893,250.632084 L 288.992341,249.324792 L 289.020380,249.299737 L 290.405363,248.058418 L 290.436682,248.030252 L 291.739200,246.854904 L 291.774410,246.823010 L 292.994462,245.713635 L 293.034333,245.677224 L 294.171919,244.633821 L 294.217438,244.591863 L 295.272559,243.614433 L 295.325011,243.565563 L 296.297667,242.654105 L 296.358757,242.596472 L 297.248948,241.750986 L 297.320986,241.682017 L 298.128712,240.902503 L 298.214904,240.818516 L 298.940165,240.104974 L 299.045089,240.000516 L 299.687884,239.352946 L 299.818295,239.219590 L 300.378625,238.637993 L 300.544896,238.462032 L 301.022761,237.946407 L 301.241575,237.704029 L 301.636974,237.254376 L 301.936660,236.900545 L 302.249594,236.516865 L 302.681094,235.956132 L 302.911562,235.638424 L 303.569013,234.633927 L 303.717016,234.382191 L 304.275521,233.318293 L 304.729294,232.205686 L 304.794832,232.019922 L 305.138914,230.871976 L 305.371486,229.696356 L 305.490408,228.503867 L 305.494589,227.305470 L 305.383989,226.112181 L 305.367062,225.992389 L 305.149963,224.845507 L 304.826830,223.723875 L 304.400483,222.637275 L 303.874639,221.595181 L 303.253883,220.606681 L 302.543628,219.680393 L 301.750067,218.824395 L 300.880119,218.046151 L 299.941372,217.352447 L 298.942010,216.749332 L 298.842618,216.695513 L 297.786516,216.186185 L 296.687338,215.778051 L 295.554754,215.474703 L 294.398729,215.278809 L 293.229436,215.192093 L 292.057162,215.215317 L 291.875304,215.227470 L 290.507119,215.395071 L 289.165706,215.712296 L 288.901383,215.790421 L 287.648038,216.234620 L 287.301250,216.378717 L 286.603051,216.694261 L 286.173797,216.904331 L 285.733810,217.130553 L 285.222091,217.406595 L 284.920889,217.574480 L 284.326705,217.916494 L 284.108094,218.045298 L 283.431444,218.453284 L 283.265769,218.554943 L 282.506654,219.028902 L 282.376867,219.111048 L 281.535287,219.650978 L 281.430919,219.718673 L 280.506874,220.324576 L 280.421152,220.381289 L 279.414642,221.053164 L 279.342996,221.101349 L 278.254020,221.839196 L 278.193256,221.880629 L 277.021815,222.684448 L 276.969634,222.720449 L 275.715728,223.590240 L 275.670436,223.621806 L 274.334065,224.557570 L 274.294385,224.585469 L 272.875548,225.587205 L 272.840501,225.612040 L 271.339198,226.679749 L 271.308017,226.701996 L 269.724250,227.835677 L 268.763007,228.597769 L 267.881090,229.450410 L 267.086994,230.385388 L 266.388365,231.393699 L 265.791933,232.465632 L 265.303440,233.590864 L 264.927591,234.758559 L 264.668006,235.957470 L 264.527185,237.176053 L 264.520471,237.573847 L 264.297357,237.768891 L 262.434292,239.391491 L 260.487453,241.081249 L 258.456988,242.838026 L 256.343022,244.661704 L 254.145665,246.552182 L 252.992619,247.541693 L 252.720712,247.680304 L 251.296494,248.365066 L 249.930789,248.980384 L 248.625678,249.527148 L 247.383381,250.006523 L 246.206235,250.420008 L 245.096649,250.769499 L 244.057041,251.057363 L 243.089740,251.286506 L 242.196858,251.460444 L 241.380110,251.583345 L 240.640590,251.660047 L 239.978512,251.696015 L 239.392905,251.697227 L 238.881312,251.669957 L 238.439524,251.620438 L 238.061402,251.554416 L 237.738856,251.476613 L 237.462044,251.390151 L 237.219804,251.296047 L 237.000313,251.192858 L 236.791902,251.076575 L 236.583894,250.940816 L 236.367342,250.777297 L 236.135548,250.576504 L 235.884298,250.328444 L 235.611808,250.023363 L 235.318450,249.652322 L 235.006335,249.207587 L 234.678837,248.682831 L 234.340135,248.073167 L 233.994819,247.375061 L 233.647580,246.586173 L 233.302984,245.705162 L 232.965324,244.731486 L 232.638533,243.665213 L 232.326148,242.506866 L 232.031302,241.257283 L 231.756741,239.917508 L 231.504850,238.488713 L 231.277687,236.972130 L 231.077021,235.369008 L 230.904367,233.680579 L 230.761016,231.908036 L 230.648072,230.052520 L 230.566472,228.115109 L 230.517015,226.096815 L 230.499607,223.900909 L 230.430498,222.683675 L 230.243136,221.478964 L 229.939302,220.298235 L 229.521888,219.152723 L 228.994864,218.053323 L 228.363244,217.010495 L 228.142197,216.714941 L 228.053981,216.288508 L 227.829203,215.172028 L 227.590368,213.957046 L 227.337883,212.645129 L 227.072048,211.237470 L 226.793089,209.734992 L 226.501179,208.138423 L 226.196452,206.448342 L 225.879015,204.665218 L 225.548952,202.789431 L 225.206332,200.821297 L 224.851210,198.761077 L 224.483634,196.608991 L 224.103641,194.365223 L 223.711264,192.029932 L 223.306529,189.603251 L 222.889461,187.085298 L 222.460078,184.476173 L 222.018399,181.775962 L 221.564436,178.984742 L 221.098204,176.102581 L 220.619714,173.129537 L 220.128975,170.065662 L 219.625995,166.911004 L 219.284724,164.761280 L 364.995721,66.359049 L 365.977399,65.623466 Z M 366.615706,168.268735 L 366.318517,167.376533 L 365.938603,166.499847 L 365.477591,165.642432 L 364.937455,164.807958 L 364.320508,164.000000 L 363.629392,163.222017 L 362.867067,162.477340 L 362.036796,161.769159 L 361.142136,161.100505 L 360.186916,160.474243 L 359.175229,159.893053 L 358.111405,159.359425 L 357.000000,158.875644 L 355.845774,158.443782 L 354.653669,158.065687 L 353.428789,157.742978 L 352.176381,157.477038 L 350.901806,157.269006 L 349.610524,157.119772 L 348.308063,157.029975 L 347.000000,157.000000 L 345.691937,157.029975 L 344.389476,157.119772 L 343.098194,157.269006 L 341.823619,157.477038 L 340.571211,157.742978 L 339.346331,158.065687 L 338.154226,158.443782 L 337.000000,158.875644 L 335.888595,159.359425 L 334.824771,159.893053 L 333.813084,160.474243 L 332.857864,161.100505 L 331.963204,161.769159 L 331.132933,162.477340 L 330.370608,163.222017 L 329.679492,164.000000 L 329.062545,164.807958 L 328.522409,165.642432 L 328.061397,166.499847 L 327.681483,167.376533 L 327.384294,168.268735 L 327.171103,169.172633 L 327.042822,170.084356 L 327.000000,171.000000 L 327.042822,171.915644 L 327.171103,172.827367 L 327.384294,173.731265 L 327.681483,174.623467 L 328.061397,175.500153 L 328.522409,176.357568 L 329.062545,177.192042 L 329.679492,178.000000 L 330.370608,178.777983 L 331.132933,179.522660 L 331.963204,180.230841 L 332.857864,180.899495 L 333.813084,181.525757 L 334.824771,182.106947 L 335.888595,182.640575 L 337.000000,183.124356 L 338.154226,183.556218 L 339.346331,183.934313 L 340.571211,184.257022 L 341.823619,184.522962 L 343.098194,184.730994 L 344.389476,184.880228 L 345.691937,184.970025 L 347.000000,185.000000 L 348.308063,184.970025 L 349.610524,184.880228 L 350.901806,184.730994 L 352.176381,184.522962 L 353.428789,184.257022 L 354.653669,183.934313 L 355.845774,183.556218 L 357.000000,183.124356 L 358.111405,182.640575 L 359.175229,182.106947 L 360.186916,181.525757 L 361.142136,180.899495 L 362.036796,180.230841 L 362.867067,179.522660 L 363.629392,178.777983 L 364.320508,178.000000 L 364.937455,177.192042 L 365.477591,176.357568 L 365.938603,175.500153 L 366.318517,174.623467 L 366.615706,173.731265 L 366.828897,172.827367 L 366.957178,171.915644 L 367.000000,171.000000 L 366.957178,170.084356 L 366.828897,169.172633 Z M 119.828897,214.172633 L 119.615706,213.268735 L 119.318517,212.376533 L 118.938603,211.499847 L 118.477591,210.642432 L 117.937455,209.807958 L 117.320508,209.000000 L 116.629392,208.222017 L 115.867067,207.477340 L 115.036796,206.769159 L 114.142136,206.100505 L 113.186916,205.474243 L 112.175229,204.893053 L 111.111405,204.359425 L 110.000000,203.875644 L 108.845774,203.443782 L 107.653669,203.065687 L 106.428789,202.742978 L 105.176381,202.477038 L 103.901806,202.269006 L 102.610524,202.119772 L 101.308063,202.029975 L 100.000000,202.000000 L 98.691937,202.029975 L 97.389476,202.119772 L 96.098194,202.269006 L 94.823619,202.477038 L 93.571211,202.742978 L 92.346331,203.065687 L 91.154226,203.443782 L 90.000000,203.875644 L 88.888595,204.359425 L 87.824771,204.893053 L 86.813084,205.474243 L 85.857864,206.100505 L 84.963204,206.769159 L 84.132933,207.477340 L 83.370608,208.222017 L 82.679492,209.000000 L 82.062545,209.807958 L 81.522409,210.642432 L 81.061397,211.499847 L 80.681483,212.376533 L 80.384294,213.268735 L 80.171103,214.172633 L 80.042822,215.084356 L 80.000000,216.000000 L 80.042822,216.915644 L 80.171103,217.827367 L 80.384294,218.731265 L 80.681483,219.623467 L 81.061397,220.500153 L 81.522409,221.357568 L 82.062545,222.192042 L 82.679492,223.000000 L 83.370608,223.777983 L 84.132933,224.522660 L 84.963204,225.230841 L 85.857864,225.899495 L 86.813084,226.525757 L 87.824771,227.106947 L 88.888595,227.640575 L 90.000000,228.124356 L 91.154226,228.556218 L 92.346331,228.934313 L 93.571211,229.257022 L 94.823619,229.522962 L 96.098194,229.730994 L 97.389476,229.880228 L 98.691937,229.970025 L 100.000000,230.000000 L 101.308063,229.970025 L 102.610524,229.880228 L 103.901806,229.730994 L 105.176381,229.522962 L 106.428789,229.257022 L 107.653669,228.934313 L 108.845774,228.556218 L 110.000000,228.124356 L 111.111405,227.640575 L 112.175229,227.106947 L 113.186916,226.525757 L 114.142136,225.899495 L 115.036796,225.230841 L 115.867067,224.522660 L 116.629392,223.777983 L 117.320508,223.000000 L 117.937455,222.192042 L 118.477591,221.357568 L 118.938603,220.500153 L 119.318517,219.623467 L 119.615706,218.731265 L 119.828897,217.827367 L 119.957178,216.915644 L 120.000000,216.000000 L 119.957178,215.084356 Z M 126.244376,388.850090 L 128.895577,386.282508 L 131.511442,383.837987 L 134.091028,381.516522 L 136.633313,379.318052 L 139.137192,377.242446 L 141.601481,375.289493 L 144.024913,373.458878 L 146.406145,371.750160 L 148.743765,370.162752 L 151.036311,368.695892 L 153.282284,367.348612 L 155.480184,366.119711 L 157.628548,365.007721 L 159.726003,364.010882 L 161.771329,363.127117 L 163.763544,362.354019 L 165.701989,361.688853 L 167.586438,361.128574 L 169.417207,360.669876 L 171.195257,360.309265 L 172.922295,360.043169 L 174.600839,359.868083 L 176.234256,359.780734 L 177.826735,359.778275 L 179.383204,359.858468 L 180.909192,360.019859 L 182.410613,360.261907 L 183.893527,360.585060 L 185.363869,360.990755 L 186.827193,361.481349 L 188.288436,362.059986 L 189.751753,362.730416 L 191.220406,363.496779 L 192.696726,364.363398 L 194.182137,365.334578 L 195.677230,366.414441 L 197.181871,367.606798 L 198.695328,368.915064 L 200.216404,370.342212 L 201.743559,371.890756 L 203.275027,373.562765 L 204.808906,375.359889 L 206.343243,377.283402 L 206.452390,377.429432 L 206.457536,377.450723 L 206.559134,377.843081 L 207.215384,380.218081 L 207.342149,380.646829 L 208.047010,382.882940 L 208.204929,383.351406 L 208.958401,385.448628 L 209.154846,385.959924 L 209.956930,387.918257 L 210.200884,388.474904 L 211.051578,390.294348 L 211.353793,390.897712 L 212.253099,392.578267 L 212.626107,393.227759 L 213.574024,394.769425 L 214.031840,395.461429 L 215.028368,396.864207 L 215.585684,397.590804 L 216.630823,398.854693 L 217.301452,399.602369 L 218.395202,400.727369 L 219.189637,401.476116 L 220.331998,402.462227 L 221.254200,403.185695 L 222.445172,404.032917 L 223.489235,404.700261 L 224.728819,405.408595 L 225.876709,405.988343 L 227.164903,406.557788 L 228.386633,407.023104 L 229.723439,407.453660 L 230.980425,407.787428 L 232.365841,408.079095 L 233.616747,408.276881 L 235.050775,408.429659 L 236.257909,408.499452 L 237.740548,408.513340 L 238.874664,408.472447 L 240.405914,408.347447 L 241.448270,408.218080 L 243.028131,407.954191 L 243.969997,407.759353 L 245.598469,407.356575 L 246.439074,407.117186 L 248.116157,406.575520 L 248.860158,406.308967 L 250.585852,405.628412 L 251.241044,405.348192 L 253.015349,404.528748 L 253.590924,404.244775 L 255.413840,403.286442 L 255.919229,403.005646 L 257.790757,401.908424 L 258.234943,401.635406 L 260.155082,400.399295 L 260.546247,400.136924 L 262.514997,398.761924 L 262.860392,398.511824 L 264.877753,396.997935 L 265.183688,396.760860 L 267.249660,395.108082 L 267.521566,394.884203 L 269.636150,393.092536 L 269.878670,392.881635 L 272.041865,390.951080 L 272.258954,390.752701 L 274.470759,388.683256 L 274.665780,388.496800 L 276.926197,386.288466 L 277.102011,386.113259 L 279.411038,383.766036 L 279.570080,383.601375 L 281.927719,381.115264 L 282.072066,380.960447 L 284.478316,378.335447 L 284.609744,378.189792 L 287.064605,375.425904 L 287.184636,375.288761 L 289.688109,372.385983 L 289.798054,372.256738 L 292.350137,369.215072 L 292.451125,369.093151 L 295.051819,365.912596 L 295.144827,365.797466 L 297.794132,362.478022 L 297.880009,362.369191 L 300.577925,358.910858 L 300.657409,358.807871 L 303.403936,355.210649 L 303.477673,355.113088 L 306.272812,351.376977 L 306.341367,351.284457 L 309.159233,347.444728 L 310.046328,347.363640 L 311.078223,347.302091 L 312.111175,347.273206 L 313.146366,347.276977 L 314.184969,347.313508 L 315.228128,347.383010 L 316.276944,347.485797 L 317.332460,347.622281 L 318.395647,347.792956 L 319.467392,347.998390 L 320.548497,348.239214 L 321.639663,348.516106 L 322.741496,348.829781 L 323.854501,349.180975 L 324.979086,349.570436 L 326.115564,349.998911 L 327.264157,350.467136 L 328.425005,350.975829 L 329.598168,351.525684 L 330.783641,352.117361 L 331.981351,352.751485 L 333.191175,353.428642 L 334.412942,354.149375 L 335.646440,354.914188 L 336.891428,355.723541 L 338.147634,356.577850 L 339.414770,357.477494 L 340.692530,358.422811 L 341.980599,359.414100 L 343.278653,360.451627 L 344.586369,361.535623 L 345.903419,362.666291 L 347.229482,363.843804 L 348.564238,365.068308 L 349.907376,366.339928 L 351.258592,367.658765 L 352.617589,369.024902 L 353.984082,370.438405 L 355.357794,371.899324 L 356.738459,373.407695 L 358.125823,374.963542 L 359.519642,376.566878 L 360.919682,378.217708 L 362.371557,379.971391 L 363.183182,380.860797 L 364.076616,381.667988 L 365.043567,382.385473 L 366.075064,383.006595 L 367.161536,383.525592 L 368.292903,383.937648 L 369.458666,384.238939 L 370.648009,384.426670 L 371.849896,384.499099 L 373.053176,384.455554 L 374.246685,384.296439 L 375.419347,384.023230 L 377.707016,383.372629 L 379.917741,382.749980 L 382.065848,382.151194 L 384.151169,381.576301 L 386.173516,381.025333 L 388.132675,380.498325 L 390.028406,379.995315 L 391.860434,379.516345 L 393.628448,379.061460 L 395.332088,378.630707 L 396.970944,378.224140 L 398.544537,377.841815 L 400.052314,377.483790 L 401.493624,377.150131 L 402.867706,376.840901 L 404.173653,376.556167 L 405.410387,376.295993 L 405.618554,376.253947 L 405.994865,376.600407 L 406.974417,377.338819 L 408.021628,377.977662 L 409.126415,378.510785 L 410.278137,378.933052 L 411.465702,379.240398 L 412.677674,379.429861 L 413.902381,379.499619 L 415.128028,379.448998 L 416.342812,379.278487 L 417.535032,378.989727 L 418.693209,378.585499 L 419.806187,378.069697 L 420.863249,377.447287 L 421.854214,376.724265 L 422.407165,376.277650 L 422.702289,376.031692 L 423.194477,375.608515 L 423.540866,375.299321 L 423.972289,374.899581 L 424.381910,374.502287 L 424.752569,374.125985 L 425.239387,373.602636 L 425.549283,373.249771 L 426.127089,372.541175 L 426.376221,372.211748 L 427.050942,371.224778 L 427.239310,370.918788 L 427.986751,369.510719 L 428.114355,369.228167 L 428.513627,368.232162 L 428.826005,367.205582 L 428.892845,366.946468 L 429.168301,365.557552 L 429.284910,364.146395 L 429.290986,363.910718 L 429.267196,362.753210 L 429.136415,361.602867 L 428.899764,360.469559 L 428.845076,360.257319 L 428.478039,359.077578 L 427.996331,357.939834 L 427.404656,356.855202 L 427.289205,356.666400 L 426.664096,355.739912 L 425.958729,354.872964 L 425.178744,354.072487 L 425.002529,353.907122 L 423.980006,353.045627 L 422.871315,352.298278 L 422.634335,352.156351 L 421.751953,351.674997 L 420.833749,351.266094 L 420.536006,351.147605 L 419.117544,350.679181 L 418.759037,350.584129 L 417.660168,350.345116 L 417.240897,350.273502 L 416.384535,350.157533 L 415.904500,350.109356 L 415.227482,350.059934 L 414.686684,350.035194 L 414.142508,350.022165 L 413.540945,350.020863 L 413.096363,350.027808 L 412.434037,350.049944 L 412.065307,350.067721 L 411.342217,350.113294 L 411.032214,350.136706 L 410.248360,350.205716 L 409.984550,350.231764 L 409.139932,350.324212 L 408.912995,350.351153 L 408.007613,350.467038 L 407.810512,350.493862 L 406.844366,350.633185 L 406.671706,350.659316 L 405.644796,350.822076 L 405.492381,350.847200 L 404.404707,351.033398 L 404.269233,351.057357 L 403.120796,351.266993 L 402.999630,351.289728 L 401.790429,351.522801 L 401.681450,351.544309 L 400.411484,351.800820 L 400.312963,351.821132 L 398.982234,352.101080 L 398.892752,352.120247 L 397.501259,352.423632 L 397.419640,352.441714 L 395.967383,352.768537 L 395.892643,352.785598 L 394.379622,353.135858 L 394.310935,353.151963 L 392.737150,353.525661 L 392.673815,353.540875 L 391.039267,353.938010 L 390.980686,353.952393 L 389.285374,354.372966 L 389.231036,354.386575 L 387.474959,354.830586 L 387.424422,354.843476 L 385.607582,355.310924 L 385.560462,355.323145 L 383.682858,355.814030 L 383.638823,355.825628 L 381.700455,356.339951 L 381.659213,356.350970 L 379.660081,356.888730 L 379.621376,356.899208 L 377.561480,357.460406 L 377.525086,357.470381 L 376.319210,357.802823 L 375.343425,356.708538 L 375.234427,356.587892 L 373.742240,354.957684 L 373.628153,354.834712 L 372.137702,353.249642 L 372.018267,353.124375 L 370.529552,351.584444 L 370.404498,351.456923 L 368.917518,349.962132 L 368.786563,349.832416 L 367.301320,348.382763 L 367.164174,348.250926 L 365.680667,346.846412 L 365.537028,346.712545 L 364.055257,345.353170 L 363.904818,345.217386 L 362.424783,343.903150 L 362.267228,343.765585 L 360.788929,342.496488 L 360.623937,342.357301 L 359.147375,341.133343 L 358.974621,340.992721 L 357.499795,339.813902 L 357.318954,339.672061 L 355.845863,338.538381 L 355.656611,338.395570 L 354.185256,337.307029 L 353.987272,337.163530 L 352.517654,336.120127 L 352.310627,335.976260 L 350.842745,334.977996 L 350.626377,334.834116 L 349.160231,333.880991 L 348.934241,333.737497 L 347.469831,332.829511 L 347.233962,332.686840 L 345.771289,331.823993 L 345.525313,331.682627 L 344.064375,330.864918 L 343.808100,330.725380 L 342.348898,329.952811 L 342.082175,329.815666 L 340.624710,329.088236 L 340.347439,328.954090 L 338.891710,328.271798 L 338.603853,328.141294 L 337.149860,327.504141 L 336.851441,327.377956 L 335.399184,326.785942 L 335.090303,326.664781 L 333.639782,326.117906 L 333.320618,326.002499 L 331.871834,325.500763 L 331.542654,325.391852 L 330.095605,324.935255 L 329.756770,324.833589 L 328.311457,324.422131 L 327.963422,324.328453 L 326.519845,323.962134 L 326.163165,323.877171 L 324.721325,323.555990 L 324.356654,323.480441 L 322.916550,323.204399 L 322.544640,323.138919 L 321.106272,322.908016 L 320.727969,322.853206 L 319.291337,322.667443 L 318.907572,322.623837 L 317.472677,322.483212 L 317.084458,322.451263 L 315.651299,322.355777 L 315.259701,322.335850 L 313.828278,322.285503 L 313.434426,322.277861 L 312.004738,322.272652 L 311.609794,322.277454 L 310.181843,322.317384 L 309.786985,322.334677 L 308.360770,322.419746 L 307.967182,322.449465 L 306.542703,322.579674 L 306.151551,322.621644 L 304.728808,322.796992 L 304.341223,322.850931 L 302.920216,323.071418 L 302.537282,323.136944 L 301.118012,323.402569 L 300.740749,323.479207 L 299.323215,323.789971 L 298.065763,324.135272 L 296.851127,324.609693 L 295.692524,325.208071 L 294.602563,325.923893 L 293.593106,326.749371 L 292.675138,327.675521 L 291.858650,328.692263 L 288.998034,332.662097 L 286.220475,336.446903 L 283.496457,340.087951 L 280.826510,343.584873 L 278.211239,346.937266 L 275.651336,350.144694 L 273.147594,353.206680 L 270.700925,356.122711 L 268.312380,358.892230 L 265.983177,361.514642 L 263.714730,363.989311 L 261.508687,366.315566 L 259.366971,368.492709 L 257.291835,370.520031 L 255.285924,372.396833 L 253.352345,374.122466 L 251.494754,375.696386 L 249.717444,377.118234 L 248.025450,378.387958 L 246.424642,379.505983 L 244.921803,380.473452 L 243.524662,381.292555 L 242.241828,381.966959 L 241.082557,382.502357 L 240.056238,382.907102 L 239.171486,383.192861 L 238.434685,383.375097 L 237.847966,383.473098 L 237.406743,383.509117 L 237.097348,383.506218 L 236.895666,383.484732 L 236.767873,383.457828 L 236.673915,383.427566 L 236.573278,383.383080 L 236.431300,383.301949 L 236.223880,383.154397 L 235.939221,382.908673 L 235.576671,382.535765 L 235.143790,382.012281 L 234.653002,381.321416 L 234.118742,380.452508 L 233.555460,379.399890 L 232.976472,378.161565 L 232.393423,376.738016 L 231.816164,375.131265 L 231.252846,373.344189 L 230.710124,371.380052 L 230.150103,369.063166 L 229.791357,367.851035 L 229.312021,366.681336 L 228.716998,365.566031 L 228.012373,364.516525 L 226.250220,362.158887 L 226.009783,361.847538 L 224.223325,359.607955 L 223.959101,359.287766 L 222.148337,357.166239 L 221.858367,356.838310 L 220.023297,354.834838 L 219.705641,354.500621 L 217.846266,352.615205 L 217.499077,352.276553 L 215.615397,350.509192 L 215.237004,350.168389 L 213.329018,348.519084 L 212.918034,348.178871 L 210.985743,346.647621 L 210.541182,346.311191 L 208.584585,344.897997 L 208.105995,344.568968 L 206.125092,343.273829 L 205.612682,342.956180 L 203.607474,341.779096 L 203.062237,341.477055 L 201.032723,340.418028 L 200.456530,340.135932 L 198.402711,339.194960 L 197.798360,338.937068 L 195.720235,338.114152 L 195.091449,337.884438 L 192.989018,337.179577 L 192.340368,336.981516 L 190.213632,336.394711 L 189.550398,336.231076 L 187.399356,335.762326 L 186.727324,335.635031 L 184.551977,335.284336 L 183.877188,335.194328 L 181.677535,334.961690 L 181.006022,334.908919 L 178.782064,334.794336 L 178.119584,334.777793 L 175.871320,334.781265 L 175.223130,334.799085 L 172.950560,334.920613 L 172.321236,334.970229 L 170.024361,335.209813 L 169.417688,335.288142 L 167.096508,335.645781 L 166.515425,335.749413 L 164.169939,336.225107 L 163.616549,336.350482 L 161.246757,336.944232 L 160.722378,337.087804 L 158.328281,337.799610 L 157.833533,337.957968 L 155.415130,338.787829 L 154.950039,338.957792 L 152.507330,339.905708 L 152.071434,340.084384 L 149.604420,341.150356 L 149.196883,341.335175 L 146.705563,342.519203 L 146.325268,342.707925 L 143.809643,344.010008 L 143.455282,344.200719 L 140.915351,345.620858 L 140.585495,345.811948 L 138.021259,347.350143 L 137.714420,347.540282 L 135.125878,349.196532 L 134.840551,349.384642 L 132.227704,351.158948 L 131.962404,351.344167 L 129.325251,353.236528 L 129.078538,353.418185 L 126.417080,355.428602 L 126.187575,355.606187 L 123.501811,357.734659 L 123.288209,357.907798 L 120.578139,360.154326 L 120.379213,360.322756 L 117.644838,362.687340 L 117.459444,362.850894 L 114.700764,365.333532 L 114.527840,365.492116 L 111.744854,368.092810 L 111.583417,368.246391 L 108.776125,370.965141 L 108.625270,371.113735 L 105.793673,373.950540 L 105.652567,374.094202 L 102.796664,377.049063 L 102.664543,377.187875 L 99.784335,380.260792 L 99.660499,380.394862 L 96.755985,383.585834 L 95.975765,384.532422 L 95.292084,385.550928 L 94.711526,386.631541 L 94.239682,387.763856 L 93.881096,388.936967 L 93.639222,390.139576 L 93.516389,391.360103 L 93.513781,392.586792 L 93.631421,393.807830 L 93.868177,395.011457 L 94.221770,396.186083 L 94.688793,397.320394 L 95.264749,398.403467 L 95.944092,399.424871 L 96.720279,400.374770 L 97.585834,401.244015 L 98.532422,402.024235 L 99.550928,402.707916 L 100.631541,403.288474 L 101.763856,403.760318 L 102.936967,404.118904 L 104.139576,404.360778 L 105.360103,404.483611 L 106.586792,404.486219 L 107.807830,404.368579 L 109.011457,404.131823 L 110.186083,403.778230 L 111.320394,403.311207 L 112.403467,402.735251 L 113.424871,402.055908 L 114.374770,401.279721 L 115.244015,400.414166 L 118.087100,397.290681 L 120.839373,394.354259 L 123.558709,391.540697 Z M 299.215779,494.185980 L 300.423621,494.400203 L 301.646644,494.495005 L 302.873070,494.469473 L 304.091088,494.323853 L 305.288968,494.059548 L 306.455173,493.679103 L 307.578472,493.186181 L 308.648048,492.585531 L 309.653599,491.882936 L 310.585442,491.085163 L 311.434602,490.199895 L 312.192902,489.235658 L 312.853039,488.201737 L 313.408655,487.108090 L 313.854400,485.965249 L 314.185980,484.784221 L 314.400203,483.576379 L 314.495005,482.353356 L 314.469473,481.126930 L 314.323853,479.908912 L 314.059548,478.711032 L 313.679103,477.544827 L 313.186181,476.421528 L 312.585531,475.351952 L 311.882936,474.346401 L 311.085163,473.414558 L 310.199895,472.565398 L 309.235658,471.807098 L 308.201737,471.146961 L 210.201737,415.146961 L 209.108090,414.591345 L 207.965249,414.145600 L 206.784221,413.814020 L 205.576379,413.599797 L 204.353356,413.504995 L 203.126930,413.530527 L 201.908912,413.676147 L 200.711032,413.940452 L 199.544827,414.320897 L 198.421528,414.813819 L 197.351952,415.414469 L 196.346401,416.117064 L 195.414558,416.914837 L 194.565398,417.800105 L 193.807098,418.764342 L 193.146961,419.798263 L 192.591345,420.891910 L 192.145600,422.034751 L 191.814020,423.215779 L 191.599797,424.423621 L 191.504995,425.646644 L 191.530527,426.873070 L 191.676147,428.091088 L 191.940452,429.288968 L 192.320897,430.455173 L 192.813819,431.578472 L 193.414469,432.648048 L 194.117064,433.653599 L 194.914837,434.585442 L 195.800105,435.434602 L 196.764342,436.192902 L 197.798263,436.853039 L 295.798263,492.853039 L 296.891910,493.408655 L 298.034751,493.854400 Z" fill="#222222" fill-rule="evenodd"/>
</svg>
