<?xml version='1.0' encoding='UTF-8'?>
<svg xmlns="http://www.w3.org/2000/svg" width="57.9805pt" height="67.8046pt" viewBox="345.2070 426.4808 57.9805 67.8046" version="1.1" overflow="hidden">
  <rect x="345.2070" y="426.4808" width="57.9805" height="67.8046" fill="#ffffff"/>
  <path fill-rule="nonzero" fill="rgb(40.783691%, 73.33374%, 55.686951%)" fill-opacity="1" d="M 396.613281 487.714844 L 351.78125 487.714844 L 351.78125 433.054688 L 396.613281 433.054688 Z M 396.613281 487.714844 " id="path300"/>
  <path fill-rule="nonzero" fill="rgb(100%, 100%, 100%)" fill-opacity="1" d="M 352.351562 487.140625 L 396.039062 487.140625 L 396.039062 433.628906 L 352.351562 433.628906 Z M 397.1875 488.285156 L 351.207031 488.285156 L 351.207031 432.480469 L 397.1875 432.480469 Z M 397.1875 488.285156 " id="path301"/>
  <path fill-rule="nonzero" fill="rgb(100%, 100%, 100%)" fill-opacity="1" d="M 357.671875 480.691406 C 357.65625 481.210938 358.074219 481.605469 358.789062 481.605469 C 359.484375 481.605469 359.753906 481.253906 359.753906 480.878906 C 359.753906 480.398438 359.328125 480.269531 358.964844 480.191406 C 358.070312 479.996094 357.28125 479.925781 357.28125 479.023438 C 357.28125 478.285156 357.878906 477.898438 358.761719 477.898438 C 359.730469 477.898438 360.167969 478.429688 360.210938 479.035156 L 359.6875 479.035156 C 359.613281 478.386719 358.996094 478.339844 358.746094 478.339844 C 358.203125 478.339844 357.839844 478.59375 357.839844 478.996094 C 357.839844 479.472656 358.304688 479.550781 358.816406 479.648438 C 359.519531 479.785156 360.3125 479.929688 360.3125 480.867188 C 360.3125 482.039062 359.085938 482.050781 358.761719 482.050781 C 358.203125 482.050781 357.207031 481.925781 357.148438 480.691406 Z M 357.671875 480.691406 " id="path302"/>
  <path fill-rule="nonzero" fill="rgb(100%, 100%, 100%)" fill-opacity="1" d="M 363.617188 479.6875 L 363.617188 480.132812 L 361.5625 480.132812 L 361.5625 481.488281 L 363.890625 481.488281 L 363.890625 481.933594 L 361.039062 481.933594 L 361.039062 478.015625 L 363.828125 478.015625 L 363.828125 478.460938 L 361.5625 478.460938 L 361.5625 479.6875 Z M 363.617188 479.6875 " id="path303"/>
  <path fill-rule="nonzero" fill="rgb(100%, 100%, 100%)" fill-opacity="1" d="M 364.988281 481.933594 L 364.460938 481.933594 L 364.460938 478.015625 L 365.042969 478.015625 L 367.125 481.121094 L 367.125 478.015625 L 367.648438 478.015625 L 367.648438 481.933594 L 367.074219 481.933594 L 364.988281 478.828125 Z M 364.988281 481.933594 " id="path304"/>
  <path fill-rule="nonzero" fill="rgb(100%, 100%, 100%)" fill-opacity="1" d="M 368.902344 480.691406 C 368.886719 481.210938 369.304688 481.605469 370.019531 481.605469 C 370.714844 481.605469 370.984375 481.253906 370.984375 480.878906 C 370.984375 480.398438 370.558594 480.269531 370.195312 480.191406 C 369.300781 479.996094 368.511719 479.925781 368.511719 479.023438 C 368.511719 478.285156 369.109375 477.898438 369.992188 477.898438 C 370.960938 477.898438 371.394531 478.429688 371.441406 479.035156 L 370.914062 479.035156 C 370.84375 478.386719 370.226562 478.339844 369.976562 478.339844 C 369.433594 478.339844 369.070312 478.59375 369.070312 478.996094 C 369.070312 479.472656 369.535156 479.550781 370.046875 479.648438 C 370.75 479.785156 371.542969 479.929688 371.542969 480.867188 C 371.542969 482.039062 370.316406 482.050781 369.992188 482.050781 C 369.433594 482.050781 368.4375 481.925781 368.375 480.691406 Z M 368.902344 480.691406 " id="path305"/>
  <path fill-rule="nonzero" fill="rgb(100%, 100%, 100%)" fill-opacity="1" d="M 374.847656 479.6875 L 374.847656 480.132812 L 372.792969 480.132812 L 372.792969 481.488281 L 375.121094 481.488281 L 375.121094 481.933594 L 372.269531 481.933594 L 372.269531 478.015625 L 375.058594 478.015625 L 375.058594 478.460938 L 372.792969 478.460938 L 372.792969 479.6875 Z M 374.847656 479.6875 " id="path306"/>
  <path fill-rule="nonzero" fill="rgb(100%, 100%, 100%)" fill-opacity="1" d="M 375.289062 478.457031 L 375.289062 478.015625 L 378.359375 478.015625 L 378.359375 478.457031 L 377.089844 478.457031 L 377.089844 481.929688 L 376.5625 481.929688 L 376.5625 478.457031 Z M 375.289062 478.457031 " id="path307"/>
  <path fill-rule="nonzero" fill="rgb(100%, 100%, 100%)" fill-opacity="1" d="M 379.433594 481.933594 L 378.90625 481.933594 L 378.90625 478.015625 L 379.433594 478.015625 Z M 379.433594 481.933594 " id="path308"/>
  <path fill-rule="nonzero" fill="rgb(100%, 100%, 100%)" fill-opacity="1" d="M 382.984375 481.199219 C 383.226562 480.890625 383.335938 480.527344 383.335938 479.972656 C 383.335938 478.515625 382.429688 478.339844 382.027344 478.339844 C 381.601562 478.339844 380.71875 478.519531 380.71875 479.972656 C 380.71875 480.578125 380.910156 481.605469 382.027344 481.605469 C 382.210938 481.605469 382.496094 481.570312 382.675781 481.449219 L 382.242188 480.964844 L 382.542969 480.703125 Z M 383.773438 482.070312 L 383.484375 482.34375 L 383.019531 481.824219 C 382.945312 481.871094 382.625 482.050781 382.027344 482.050781 C 380.511719 482.050781 380.160156 480.824219 380.160156 479.972656 C 380.160156 479.308594 380.421875 477.898438 382.027344 477.898438 C 383.117188 477.898438 383.898438 478.605469 383.898438 479.972656 C 383.898438 480.378906 383.851562 481.03125 383.332031 481.585938 Z M 383.773438 482.070312 " id="path309"/>
  <path fill-rule="nonzero" fill="rgb(100%, 100%, 100%)" fill-opacity="1" d="M 385.074219 478.015625 L 385.074219 480.347656 C 385.074219 480.828125 385.109375 481.609375 386.09375 481.609375 C 386.871094 481.609375 387.113281 481.171875 387.113281 480.347656 L 387.113281 478.015625 L 387.636719 478.015625 L 387.636719 480.414062 C 387.636719 482.007812 386.519531 482.050781 386.09375 482.050781 C 384.660156 482.050781 384.550781 481.085938 384.550781 480.414062 L 384.550781 478.015625 Z M 385.074219 478.015625 " id="path310"/>
  <path fill-rule="nonzero" fill="rgb(100%, 100%, 100%)" fill-opacity="1" d="M 391.09375 479.6875 L 391.09375 480.132812 L 389.042969 480.132812 L 389.042969 481.488281 L 391.367188 481.488281 L 391.367188 481.933594 L 388.515625 481.933594 L 388.515625 478.015625 L 391.304688 478.015625 L 391.304688 478.460938 L 389.042969 478.460938 L 389.042969 479.6875 Z M 391.09375 479.6875 " id="path311"/>
  <path fill-rule="nonzero" fill="rgb(100%, 100%, 100%)" fill-opacity="1" d="M 368.90625 450.59375 L 374.851562 450.003906 C 374.953125 449.992188 374.996094 449.917969 375.007812 449.886719 C 375.023438 449.851562 375.042969 449.769531 374.980469 449.691406 L 371.09375 444.945312 L 368.964844 442.46875 L 369.558594 441.875 L 372.441406 444.351562 L 376.773438 447.898438 C 376.851562 447.964844 376.933594 447.941406 376.964844 447.925781 C 376.996094 447.914062 377.074219 447.871094 377.082031 447.769531 L 377.71875 441.394531 L 377.945312 438.402344 L 378.785156 438.402344 L 379.097656 442.566406 L 379.617188 447.769531 C 379.625 447.871094 379.703125 447.914062 379.734375 447.929688 C 379.765625 447.941406 379.847656 447.964844 379.929688 447.898438 L 386.535156 441.945312 L 387.03125 442.445312 L 379.675781 449.46875 L 375.703125 452.640625 L 375.617188 452.632812 L 368.886719 451.949219 L 365.492188 451.691406 L 365.492188 450.851562 L 368.90625 450.59375 " id="path312"/>
  <path fill-rule="nonzero" fill="rgb(100%, 100%, 100%)" fill-opacity="1" d="M 377.71875 461.167969 L 377.945312 464.144531 L 378.386719 464.136719 L 378.785156 464.144531 L 379.105469 459.867188 L 379.617188 454.769531 C 379.625 454.664062 379.703125 454.625 379.734375 454.609375 C 379.765625 454.597656 379.847656 454.574219 379.925781 454.640625 L 384.695312 458.542969 L 387.167969 460.671875 L 387.761719 460.074219 L 385.132812 457.019531 L 381.71875 452.847656 C 381.65625 452.769531 381.679688 452.683594 381.691406 452.652344 C 381.703125 452.621094 381.746094 452.546875 381.847656 452.535156 L 387.582031 451.96875 L 391.238281 451.691406 L 391.238281 450.851562 L 388.082031 450.613281 L 381.144531 449.90625 L 381.058594 449.898438 L 377.109375 453.066406 L 376.894531 453.253906 L 357.121094 471.921875 L 357.699219 472.53125 L 374.167969 456.988281 L 376.773438 454.640625 C 376.851562 454.574219 376.933594 454.597656 376.964844 454.609375 C 376.996094 454.625 377.074219 454.664062 377.082031 454.769531 L 377.71875 461.167969 " id="path313"/>
</svg>
