<?xml version='1.0' encoding='UTF-8'?>
<svg xmlns="http://www.w3.org/2000/svg" width="56.8320pt" height="66.6563pt" viewBox="345.7815 970.1100 56.8320 66.6563" version="1.1" overflow="hidden">
  <rect x="345.7815" y="970.1100" width="56.8320" height="66.6563" fill="#ffffff"/>
  <path fill-rule="nonzero" fill="rgb(100%, 100%, 100%)" fill-opacity="1" d="M 396.613281 1030.765625 L 351.78125 1030.765625 L 351.78125 976.109375 L 396.613281 976.109375 Z M 396.613281 1030.765625 " id="path544"/>
  <path fill-rule="nonzero" fill="rgb(89.804077%, 20.391846%, 16.470337%)" fill-opacity="1" d="M 357.671875 1023.746094 C 357.65625 1024.265625 358.074219 1024.664062 358.789062 1024.664062 C 359.484375 1024.664062 359.753906 1024.308594 359.753906 1023.933594 C 359.753906 1023.453125 359.328125 1023.324219 358.964844 1023.246094 C 358.070312 1023.050781 357.28125 1022.976562 357.28125 1022.078125 C 357.28125 1021.339844 357.878906 1020.953125 358.761719 1020.953125 C 359.730469 1020.953125 360.167969 1021.484375 360.210938 1022.089844 L 359.6875 1022.089844 C 359.613281 1021.441406 358.996094 1021.394531 358.746094 1021.394531 C 358.203125 1021.394531 357.839844 1021.648438 357.839844 1022.050781 C 357.839844 1022.523438 358.304688 1022.601562 358.816406 1022.703125 C 359.519531 1022.839844 360.3125 1022.984375 360.3125 1023.925781 C 360.3125 1025.09375 359.085938 1025.101562 358.761719 1025.101562 C 358.203125 1025.101562 357.207031 1024.980469 357.148438 1023.746094 Z M 357.671875 1023.746094 " id="path545"/>
  <path fill-rule="nonzero" fill="rgb(89.804077%, 20.391846%, 16.470337%)" fill-opacity="1" d="M 363.617188 1022.742188 L 363.617188 1023.183594 L 361.5625 1023.183594 L 361.5625 1024.542969 L 363.890625 1024.542969 L 363.890625 1024.988281 L 361.039062 1024.988281 L 361.039062 1021.070312 L 363.828125 1021.070312 L 363.828125 1021.511719 L 361.5625 1021.511719 L 361.5625 1022.742188 Z M 363.617188 1022.742188 " id="path546"/>
  <path fill-rule="nonzero" fill="rgb(89.804077%, 20.391846%, 16.470337%)" fill-opacity="1" d="M 364.988281 1024.988281 L 364.460938 1024.988281 L 364.460938 1021.070312 L 365.042969 1021.070312 L 367.125 1024.175781 L 367.125 1021.070312 L 367.648438 1021.070312 L 367.648438 1024.988281 L 367.074219 1024.988281 L 364.988281 1021.882812 Z M 364.988281 1024.988281 " id="path547"/>
  <path fill-rule="nonzero" fill="rgb(89.804077%, 20.391846%, 16.470337%)" fill-opacity="1" d="M 368.902344 1023.746094 C 368.886719 1024.265625 369.304688 1024.664062 370.019531 1024.664062 C 370.714844 1024.664062 370.984375 1024.308594 370.984375 1023.933594 C 370.984375 1023.453125 370.558594 1023.324219 370.195312 1023.246094 C 369.300781 1023.050781 368.511719 1022.976562 368.511719 1022.078125 C 368.511719 1021.339844 369.109375 1020.953125 369.992188 1020.953125 C 370.960938 1020.953125 371.394531 1021.484375 371.441406 1022.089844 L 370.914062 1022.089844 C 370.84375 1021.441406 370.226562 1021.394531 369.976562 1021.394531 C 369.433594 1021.394531 369.070312 1021.648438 369.070312 1022.050781 C 369.070312 1022.523438 369.535156 1022.601562 370.046875 1022.703125 C 370.75 1022.839844 371.542969 1022.984375 371.542969 1023.925781 C 371.542969 1025.09375 370.316406 1025.101562 369.992188 1025.101562 C 369.433594 1025.101562 368.4375 1024.980469 368.375 1023.746094 Z M 368.902344 1023.746094 " id="path548"/>
  <path fill-rule="nonzero" fill="rgb(89.804077%, 20.391846%, 16.470337%)" fill-opacity="1" d="M 374.847656 1022.742188 L 374.847656 1023.183594 L 372.792969 1023.183594 L 372.792969 1024.542969 L 375.121094 1024.542969 L 375.121094 1024.988281 L 372.269531 1024.988281 L 372.269531 1021.070312 L 375.058594 1021.070312 L 375.058594 1021.511719 L 372.792969 1021.511719 L 372.792969 1022.742188 Z M 374.847656 1022.742188 " id="path549"/>
  <path fill-rule="nonzero" fill="rgb(89.804077%, 20.391846%, 16.470337%)" fill-opacity="1" d="M 375.289062 1021.511719 L 375.289062 1021.070312 L 378.359375 1021.070312 L 378.359375 1021.511719 L 377.089844 1021.511719 L 377.089844 1024.988281 L 376.5625 1024.988281 L 376.5625 1021.511719 Z M 375.289062 1021.511719 " id="path550"/>
  <path fill-rule="nonzero" fill="rgb(89.804077%, 20.391846%, 16.470337%)" fill-opacity="1" d="M 379.433594 1024.988281 L 378.90625 1024.988281 L 378.90625 1021.070312 L 379.433594 1021.070312 Z M 379.433594 1024.988281 " id="path551"/>
  <path fill-rule="nonzero" fill="rgb(89.804077%, 20.391846%, 16.470337%)" fill-opacity="1" d="M 382.984375 1024.253906 C 383.226562 1023.945312 383.335938 1023.582031 383.335938 1023.027344 C 383.335938 1021.566406 382.429688 1021.394531 382.027344 1021.394531 C 381.601562 1021.394531 380.71875 1021.574219 380.71875 1023.027344 C 380.71875 1023.632812 380.910156 1024.660156 382.027344 1024.660156 C 382.210938 1024.660156 382.496094 1024.621094 382.675781 1024.503906 L 382.242188 1024.019531 L 382.542969 1023.757812 Z M 383.773438 1025.125 L 383.484375 1025.398438 L 383.019531 1024.878906 C 382.945312 1024.925781 382.625 1025.105469 382.027344 1025.105469 C 380.511719 1025.105469 380.160156 1023.878906 380.160156 1023.027344 C 380.160156 1022.363281 380.421875 1020.953125 382.027344 1020.953125 C 383.117188 1020.953125 383.898438 1021.65625 383.898438 1023.027344 C 383.898438 1023.429688 383.851562 1024.085938 383.332031 1024.640625 Z M 383.773438 1025.125 " id="path552"/>
  <path fill-rule="nonzero" fill="rgb(89.804077%, 20.391846%, 16.470337%)" fill-opacity="1" d="M 385.074219 1021.070312 L 385.074219 1023.402344 C 385.074219 1023.882812 385.109375 1024.664062 386.09375 1024.664062 C 386.871094 1024.664062 387.113281 1024.226562 387.113281 1023.402344 L 387.113281 1021.070312 L 387.636719 1021.070312 L 387.636719 1023.46875 C 387.636719 1025.066406 386.519531 1025.101562 386.09375 1025.101562 C 384.660156 1025.101562 384.550781 1024.140625 384.550781 1023.46875 L 384.550781 1021.070312 Z M 385.074219 1021.070312 " id="path553"/>
  <path fill-rule="nonzero" fill="rgb(89.804077%, 20.391846%, 16.470337%)" fill-opacity="1" d="M 391.09375 1022.742188 L 391.09375 1023.183594 L 389.042969 1023.183594 L 389.042969 1024.542969 L 391.367188 1024.542969 L 391.367188 1024.988281 L 388.515625 1024.988281 L 388.515625 1021.070312 L 391.304688 1021.070312 L 391.304688 1021.511719 L 389.042969 1021.511719 L 389.042969 1022.742188 Z M 391.09375 1022.742188 " id="path554"/>
  <path fill-rule="nonzero" fill="rgb(89.804077%, 20.391846%, 16.470337%)" fill-opacity="1" d="M 368.90625 993.648438 L 374.851562 993.058594 C 374.953125 993.046875 374.996094 992.972656 375.007812 992.9375 C 375.023438 992.90625 375.042969 992.824219 374.980469 992.742188 L 371.09375 988 L 368.964844 985.523438 L 369.558594 984.929688 L 372.441406 987.40625 L 376.773438 990.953125 C 376.851562 991.019531 376.933594 990.996094 376.964844 990.980469 C 376.996094 990.96875 377.074219 990.925781 377.082031 990.824219 L 377.71875 984.449219 L 377.945312 981.457031 L 378.785156 981.457031 L 379.097656 985.617188 L 379.617188 990.824219 C 379.625 990.925781 379.703125 990.96875 379.734375 990.980469 C 379.765625 990.996094 379.847656 991.019531 379.929688 990.953125 L 386.535156 984.996094 L 387.03125 985.496094 L 379.675781 992.523438 L 375.703125 995.695312 L 375.617188 995.6875 L 368.886719 995.003906 L 365.492188 994.746094 L 365.492188 993.90625 L 368.90625 993.648438 " id="path555"/>
  <path fill-rule="nonzero" fill="rgb(89.804077%, 20.391846%, 16.470337%)" fill-opacity="1" d="M 377.71875 1004.222656 L 377.945312 1007.199219 L 378.386719 1007.191406 L 378.785156 1007.199219 L 379.105469 1002.921875 L 379.617188 997.824219 C 379.625 997.71875 379.703125 997.679688 379.734375 997.664062 C 379.765625 997.652344 379.847656 997.628906 379.925781 997.695312 L 384.695312 1001.59375 L 387.167969 1003.722656 L 387.761719 1003.128906 L 385.132812 1000.074219 L 381.71875 995.902344 C 381.65625 995.824219 381.679688 995.738281 381.691406 995.707031 C 381.703125 995.675781 381.746094 995.601562 381.847656 995.589844 L 387.582031 995.019531 L 391.238281 994.746094 L 391.238281 993.90625 L 388.082031 993.667969 L 381.144531 992.960938 L 381.058594 992.953125 L 377.109375 996.121094 L 376.894531 996.308594 L 357.121094 1014.972656 L 357.699219 1015.585938 L 374.167969 1000.042969 L 376.773438 997.695312 C 376.851562 997.628906 376.933594 997.652344 376.964844 997.664062 C 376.996094 997.675781 377.074219 997.71875 377.082031 997.824219 L 377.71875 1004.222656 " id="path556"/>
</svg>
