{
	"asset":{
		"generator":"Khronos glTF Blender I/O v4.3.47",
		"version":"2.0"
	},
	"extensionsUsed":[
		"KHR_materials_transmission",
		"KHR_materials_emissive_strength",
		"KHR_materials_specular",
		"KHR_materials_ior",
		"KHR_lights_punctual"
	],
	"extensionsRequired":[
		"KHR_lights_punctual"
	],
	"extensions":{
		"KHR_lights_punctual":{
			"lights":[
				{
					"color":[
						0,
						0.40453779697418213,
						1
					],
					"intensity":195.6651077705948,
					"type":"point",
					"name":"Area"
				}
			]
		}
	},
	"scene":0,
	"scenes":[
		{
			"extras":{
				"svg_export":{},
				"assets used":{
					"56476c57-9a90-4337-ae15-31b7bd743cf7":{
						"access":"free",
						"accessLabel":"Free",
						"addonVersion":"1.0.32",
						"assetBaseId":"56476c57-9a90-4337-ae15-31b7bd743cf7",
						"assetType":"model",
						"author":{
							"aboutMe":"Create your 3D model now!! By simply click the link below to make your request.\r\nhttps://www.instagram.com/jayrenn_reeve/",
							"aboutMeUrl":"https://www.artstation.com/jayrennreeve2",
							"avatar128":"/avatar-redirect/1cd8b44e-d723-4aa1-b627-908b684e7847/128/",
							"firstName":"Jayrenn",
							"fullName":"Jayrenn Reeve",
							"gravatarHash":"ed3bf7cc8db1aaf7dff9aa9d143e8ae6",
							"id":"114910",
							"lastName":"Reeve"
						},
						"available_resolutions":[
							512,
							1024,
							2048
						],
						"basePrice":"",
						"bbox_max":[
							0.2105,
							0.2215,
							0.2863
						],
						"bbox_min":[
							-0.2104,
							-0.1447,
							0.0004
						],
						"canDownload":true,
						"canDownloadError":true,
						"category":"computer",
						"created":"2021-06-05T19:40:18.851408+02:00",
						"description":"cycles ready,macbook pro",
						"dictParameters":{
							"addons":true,
							"animated":false,
							"boundBoxMaxX":0.2105,
							"boundBoxMaxY":0.2215,
							"boundBoxMaxZ":0.2863,
							"boundBoxMinX":-0.2104,
							"boundBoxMinY":-0.1447,
							"boundBoxMinZ":0.0004,
							"condition":"new",
							"dimensionX":0.4209,
							"dimensionY":0.3663,
							"dimensionZ":0.2859,
							"engines":[
								"cycles"
							],
							"faceCount":874373,
							"faceCountRender":874373,
							"joinBlenderkitDiscounts":true,
							"manifold":false,
							"materials":[
								"Material.003",
								"body",
								"black.002",
								"screen",
								"dark",
								"glass.002",
								"Material",
								"Material.001",
								"glass.003",
								"Apple-logo",
								"black.001",
								"key",
								"key.002",
								"Face.069",
								"Material.002",
								"key.001",
								"key.003",
								"black",
								"black.003",
								"Material.006",
								"Dark",
								"Material.005"
							],
							"megapixels":6,
							"meshPolyType":"quad_dominant",
							"modelStyle":"realistic",
							"modifiers":[
								""
							],
							"nodeCount":56,
							"objectCount":16,
							"platforms":[
								"windows-x64",
								"macos-arm64",
								"linux-x64",
								"macos-x64",
								"windows-arm64"
							],
							"procedural":false,
							"productionLevel":"finished",
							"purePbr":false,
							"rig":false,
							"sexualizedContent":false,
							"shaders":[
								"principled",
								"emission"
							],
							"simulation":false,
							"textureCount":4,
							"textureResolutionMax":1960,
							"textureResolutionMin":669,
							"uv":true
						},
						"displayName":"Macbook pro/laptop",
						"downloaded":0,
						"files":[
							{
								"created":"2021-06-08T15:28:55.895268+02:00",
								"downloadUrl":"https://www.blenderkit.com/api/v1/downloads/64975/",
								"fileThumbnail":"",
								"fileThumbnailLarge":"",
								"fileType":"blend",
								"fileUploadSize":38630496,
								"filename":"assets/f12a722bba384000bf49f88dca9f12cc/files/blend_b3fe5e0b-ad3d-4c29-b71d-db13d4df46e4.blend",
								"modified":"2025-12-22T16:24:55.168177+01:00",
								"resolution":0,
								"thumbnailMiddleUrl":"",
								"thumbnailSmallUrl":"",
								"url":""
							},
							{
								"created":"2021-06-09T23:06:50.875862+02:00",
								"downloadUrl":"https://www.blenderkit.com/api/v1/downloads/65200/",
								"fileThumbnail":"",
								"fileThumbnailLarge":"",
								"fileType":"resolution_0_5K",
								"fileUploadSize":37957385,
								"filename":"assets/f12a722bba384000bf49f88dca9f12cc/files/resolution_0_5K_122f8992-571f-4bb7-842f-b7dd19b38f0a.blend",
								"modified":"2021-06-16T07:59:52.122330+02:00",
								"resolution":0,
								"thumbnailMiddleUrl":"",
								"thumbnailSmallUrl":"",
								"url":""
							},
							{
								"created":"2021-06-09T23:06:30.788513+02:00",
								"downloadUrl":"https://www.blenderkit.com/api/v1/downloads/65199/",
								"fileThumbnail":"",
								"fileThumbnailLarge":"",
								"fileType":"resolution_1K",
								"fileUploadSize":38097533,
								"filename":"assets/f12a722bba384000bf49f88dca9f12cc/files/resolution_1K_d2922d04-86f5-4edf-9f8b-37fa199e587a.blend",
								"modified":"2021-06-16T07:59:53.942539+02:00",
								"resolution":0,
								"thumbnailMiddleUrl":"",
								"thumbnailSmallUrl":"",
								"url":""
							},
							{
								"created":"2021-06-09T23:06:19.490274+02:00",
								"downloadUrl":"https://www.blenderkit.com/api/v1/downloads/65198/",
								"fileThumbnail":"",
								"fileThumbnailLarge":"",
								"fileType":"resolution_2K",
								"fileUploadSize":38572943,
								"filename":"assets/f12a722bba384000bf49f88dca9f12cc/files/resolution_2K_263f2bec-d080-41a5-92c4-892877949b4b.blend",
								"modified":"2021-06-16T07:59:55.742077+02:00",
								"resolution":0,
								"thumbnailMiddleUrl":"",
								"thumbnailSmallUrl":"",
								"url":"https://assets.blenderkit.com/assets/f12a722bba384000bf49f88dca9f12cc/files/resolution_2K_263f2bec-d080-41a5-92c4-892877949b4b.blend?verify=1779450339-YkZB1GiXMM6k%2BXk5Xhgnnpg36GeScVf%2FIvmfeV0sRpg%3D",
								"file_name":"C:\\Users\\awful\\blenderkit_data\\models\\macbook-pro-lapt_f12a722b-ba38-4000-bf49-f88dca9f12cc\\macbook-pro-laptop_2K_263f2bec-d080-41a5-92c4-892877949b4b.blend"
							},
							{
								"created":"2021-06-08T16:44:23.407545+02:00",
								"downloadUrl":"https://www.blenderkit.com/api/v1/downloads/64993/",
								"fileThumbnail":"https://public.blenderkit.com/thumbnails/assets/f12a722bba384000bf49f88dca9f12cc/files/thumbnail_f0efc7cf-2938-42c7-a578-9a9c68fe81e6.jpg.96x96_q85_crop-%2C.jpg",
								"fileThumbnailLarge":"https://public.blenderkit.com/thumbnails/assets/f12a722bba384000bf49f88dca9f12cc/files/thumbnail_f0efc7cf-2938-42c7-a578-9a9c68fe81e6.jpg.1024x1024_q85_crop-%2C.jpg",
								"fileType":"thumbnail",
								"fileUploadSize":269546,
								"filename":"assets/f12a722bba384000bf49f88dca9f12cc/files/thumbnail_f0efc7cf-2938-42c7-a578-9a9c68fe81e6.jpg",
								"modified":"2025-12-22T17:32:15.825569+01:00",
								"resolution":0,
								"thumbnailMiddleUrl":"https://public.blenderkit.com/thumbnails/assets/f12a722bba384000bf49f88dca9f12cc/files/thumbnail_f0efc7cf-2938-42c7-a578-9a9c68fe81e6.jpg.512x512_q85_crop-%2C.jpg",
								"thumbnailSmallUrl":"https://public.blenderkit.com/thumbnails/assets/f12a722bba384000bf49f88dca9f12cc/files/thumbnail_f0efc7cf-2938-42c7-a578-9a9c68fe81e6.jpg.256x256_q85_crop-%2C.jpg",
								"url":""
							}
						],
						"id":"f12a722b-ba38-4000-bf49-f88dca9f12cc",
						"isForSale":false,
						"isFree":true,
						"isPrivate":false,
						"lastAnimatedThumbnailUpload":null,
						"lastBlendUpload":"2021-06-08T13:28:55.895268+00:00",
						"lastGltfGodotUpload":null,
						"lastGltfUpload":null,
						"lastPhotoThumbnailUpload":null,
						"lastResolutionUpload":"2021-06-09T21:06:50.875862+00:00",
						"lastThumbnailUpload":"2021-06-08T14:44:23.407545+00:00",
						"lastUserInteraction":"2021-06-08T16:43:44.060619+02:00",
						"lastVideoUpload":null,
						"lastZipFileUpload":"",
						"license":"royalty_free",
						"max_resolution":2048,
						"name":"Macbook pro/laptop",
						"pk":17649,
						"ratingsAverage":{
							"bookmarks":0.9749687108886108,
							"quality":8.807692307692308,
							"virtualPrice":null,
							"workingHours":15
						},
						"ratingsCount":{
							"bookmarks":799,
							"quality":26,
							"virtualPrice":0,
							"workingHours":18
						},
						"ratingsMedian":{
							"bookmarks":1,
							"quality":10,
							"virtualPrice":null,
							"workingHours":15
						},
						"ratingsSum":{
							"bookmarks":779,
							"quality":229,
							"score":1321.1538461538462,
							"virtualPrice":null,
							"workingHours":1051.8
						},
						"score":1321.1538461538462,
						"showMarketingLabels":true,
						"sourceAppName":"blender",
						"sourceAppVersion":"2.91.2",
						"tags":[
							"Public"
						],
						"thumbnail":"thumbnail_f0efc7cf-2938-42c7-a578-9a9c68fe81e6.jpg.512x512_q85_crop-%2C.jpg.webp",
						"thumbnailLargeUrl":"https://public.blenderkit.com/thumbnails/assets/f12a722bba384000bf49f88dca9f12cc/files/thumbnail_f0efc7cf-2938-42c7-a578-9a9c68fe81e6.jpg.1024x1024_q85_crop-%2C.jpg",
						"thumbnailLargeUrlNonsquared":"https://public.blenderkit.com/thumbnails/assets/f12a722bba384000bf49f88dca9f12cc/files/thumbnail_f0efc7cf-2938-42c7-a578-9a9c68fe81e6.jpg.1024x1024_q85.jpg",
						"thumbnailLargeUrlNonsquaredWebp":"https://public.blenderkit.com/thumbnails/assets/f12a722bba384000bf49f88dca9f12cc/files/thumbnail_f0efc7cf-2938-42c7-a578-9a9c68fe81e6.jpg.1024x1024_q85.jpg.webp?webp_generated=1766438773",
						"thumbnailLargeUrlWebp":"https://public.blenderkit.com/thumbnails/assets/f12a722bba384000bf49f88dca9f12cc/files/thumbnail_f0efc7cf-2938-42c7-a578-9a9c68fe81e6.jpg.1024x1024_q85_crop-%2C.jpg.webp?webp_generated=1766438773",
						"thumbnailMiddleUrl":"https://public.blenderkit.com/thumbnails/assets/f12a722bba384000bf49f88dca9f12cc/files/thumbnail_f0efc7cf-2938-42c7-a578-9a9c68fe81e6.jpg.512x512_q85_crop-%2C.jpg",
						"thumbnailMiddleUrlNonsquared":"https://public.blenderkit.com/thumbnails/assets/f12a722bba384000bf49f88dca9f12cc/files/thumbnail_f0efc7cf-2938-42c7-a578-9a9c68fe81e6.jpg.512x512_q85.jpg",
						"thumbnailMiddleUrlNonsquaredWebp":"https://public.blenderkit.com/thumbnails/assets/f12a722bba384000bf49f88dca9f12cc/files/thumbnail_f0efc7cf-2938-42c7-a578-9a9c68fe81e6.jpg.512x512_q85.jpg.webp?webp_generated=1766438773",
						"thumbnailMiddleUrlWebp":"https://public.blenderkit.com/thumbnails/assets/f12a722bba384000bf49f88dca9f12cc/files/thumbnail_f0efc7cf-2938-42c7-a578-9a9c68fe81e6.jpg.512x512_q85_crop-%2C.jpg.webp?webp_generated=1766438773",
						"thumbnailSmallUrl":"https://public.blenderkit.com/thumbnails/assets/f12a722bba384000bf49f88dca9f12cc/files/thumbnail_f0efc7cf-2938-42c7-a578-9a9c68fe81e6.jpg.256x256_q85_crop-%2C.jpg",
						"thumbnailSmallUrlNonsquared":"https://public.blenderkit.com/thumbnails/assets/f12a722bba384000bf49f88dca9f12cc/files/thumbnail_f0efc7cf-2938-42c7-a578-9a9c68fe81e6.jpg.256x256_q85.jpg",
						"thumbnailSmallUrlNonsquaredWebp":"https://public.blenderkit.com/thumbnails/assets/f12a722bba384000bf49f88dca9f12cc/files/thumbnail_f0efc7cf-2938-42c7-a578-9a9c68fe81e6.jpg.256x256_q85.jpg.webp?webp_generated=1766438773",
						"thumbnailSmallUrlWebp":"https://public.blenderkit.com/thumbnails/assets/f12a722bba384000bf49f88dca9f12cc/files/thumbnail_f0efc7cf-2938-42c7-a578-9a9c68fe81e6.jpg.256x256_q85_crop-%2C.jpg.webp?webp_generated=1766438773",
						"thumbnailXlargeUrl":"https://public.blenderkit.com/thumbnails/assets/f12a722bba384000bf49f88dca9f12cc/files/thumbnail_f0efc7cf-2938-42c7-a578-9a9c68fe81e6.jpg.2048x2048_q85_crop-%2C.jpg",
						"thumbnailXlargeUrlNonsquared":"https://public.blenderkit.com/thumbnails/assets/f12a722bba384000bf49f88dca9f12cc/files/thumbnail_f0efc7cf-2938-42c7-a578-9a9c68fe81e6.jpg.2048x2048_q85.jpg",
						"thumbnailXlargeUrlNonsquaredWebp":"https://public.blenderkit.com/thumbnails/assets/f12a722bba384000bf49f88dca9f12cc/files/thumbnail_f0efc7cf-2938-42c7-a578-9a9c68fe81e6.jpg.2048x2048_q85.jpg.webp?webp_generated=1766438773",
						"thumbnailXlargeUrlWebp":"https://public.blenderkit.com/thumbnails/assets/f12a722bba384000bf49f88dca9f12cc/files/thumbnail_f0efc7cf-2938-42c7-a578-9a9c68fe81e6.jpg.2048x2048_q85_crop-%2C.jpg.webp?webp_generated=1766438773",
						"thumbnail_small":"thumbnail_f0efc7cf-2938-42c7-a578-9a9c68fe81e6.jpg.256x256_q85_crop-%2C.jpg.webp",
						"tooltip_data":{
							"aname":"Macbook pro/laptop",
							"author_text":"by Jayrenn Reeve",
							"base_price_bg_color":[
								0.7,
								0.7,
								0.7,
								0.6
							],
							"base_price_color":[
								1.0,
								1.0,
								1.0,
								0.9
							],
							"base_price_text":"",
							"quality":"9",
							"user_price_bg_color":[
								0.7,
								0.7,
								0.7,
								0.6
							],
							"user_price_color":[
								1.0,
								1.0,
								1.0,
								0.9
							],
							"user_price_text":""
						},
						"url":"https://www.blenderkit.com/api/v1/assets/f12a722b-ba38-4000-bf49-f88dca9f12cc/",
						"verificationStatus":"validated",
						"versionNumber":1,
						"videoLink":"",
						"webpGeneratedTimestamp":1766438773,
						"resolution":"resolution_2K"
					}
				},
				"uuid":"0cf3c031-e716-4267-85aa-e8064cdc0ab6",
				"assets reported":{},
				"booltron":{}
			},
			"name":"Scene",
			"nodes":[
				0,
				16,
				17,
				18
			]
		}
	],
	"nodes":[
		{
			"camera":0,
			"name":"Camera",
			"rotation":[
				-0.044964950531721115,
				0.4053858518600464,
				0.019969070330262184,
				0.9128207564353943
			],
			"translation":[
				0.35507670044898987,
				0.14305168390274048,
				0.36174333095550537
			]
		},
		{
			"extras":{
				"pov":{},
				"ant_landscape":{}
			},
			"mesh":0,
			"name":"Cube.002",
			"rotation":[
				0.0005309412372298539,
				0,
				0,
				1
			],
			"scale":[
				0.1210269033908844,
				0.12102693319320679,
				0.12102693319320679
			],
			"translation":[
				0.00013941903307568282,
				0.024573249742388725,
				0.1489516943693161
			]
		},
		{
			"extras":{
				"ant_landscape":{}
			},
			"mesh":1,
			"name":"Cube.003",
			"scale":[
				0.25851714611053467,
				0.25851714611053467,
				0.25851714611053467
			],
			"translation":[
				0.005501046776771545,
				0.026694443076848984,
				-0.09301170706748962
			]
		},
		{
			"mesh":2,
			"name":"Cube.004",
			"rotation":[
				0.0005309412372298539,
				0,
				0,
				1
			],
			"scale":[
				0.006441864650696516,
				0.003937340807169676,
				0.007620946038514376
			],
			"translation":[
				-0.39266741275787354,
				0.019030047580599785,
				-0.22232411801815033
			]
		},
		{
			"mesh":3,
			"name":"Cube.006",
			"rotation":[
				0.0005309412372298539,
				0,
				0,
				1
			],
			"scale":[
				0.006441864650696516,
				0.003033433575183153,
				0.000773285748437047
			],
			"translation":[
				-0.39213091135025024,
				0.01976800709962845,
				-0.22722575068473816
			]
		},
		{
			"mesh":4,
			"name":"Cube.007",
			"rotation":[
				0.0005309412372298539,
				0,
				0,
				1
			],
			"scale":[
				0.006441864650696516,
				0.003033433575183153,
				0.000773285748437047
			],
			"translation":[
				-0.39213091135025024,
				0.018469691276550293,
				-0.22722575068473816
			]
		},
		{
			"extras":{
				"ant_landscape":{}
			},
			"mesh":5,
			"name":"Cube.008",
			"rotation":[
				0.0005309412372298539,
				0,
				0,
				1
			],
			"scale":[
				0.006441864650696516,
				0.003937340807169676,
				0.007620946038514376
			],
			"translation":[
				-0.39266741275787354,
				0.019030047580599785,
				-0.18311381340026855
			]
		},
		{
			"extras":{
				"ant_landscape":{}
			},
			"mesh":6,
			"name":"Cube.009",
			"rotation":[
				0.0005309412372298539,
				0,
				0,
				1
			],
			"scale":[
				0.006441864650696516,
				0.003033433575183153,
				0.000773285748437047
			],
			"translation":[
				-0.39213091135025024,
				0.01976800709962845,
				-0.1880154311656952
			]
		},
		{
			"mesh":7,
			"name":"Cube.010",
			"rotation":[
				0.0005309412372298539,
				0,
				0,
				1
			],
			"scale":[
				0.006441864650696516,
				0.003033433575183153,
				0.000773285748437047
			],
			"translation":[
				-0.39213091135025024,
				0.018469691276550293,
				-0.1880154311656952
			]
		},
		{
			"extras":{
				"ant_landscape":{}
			},
			"mesh":8,
			"name":"Cube.011",
			"scale":[
				0.25851714611053467,
				0.25851714611053467,
				0.25851714611053467
			],
			"translation":[
				0.14004208147525787,
				0.0265400018543005,
				-0.1665656864643097
			]
		},
		{
			"extras":{
				"ant_landscape":{},
				"pov":{},
				"BoolToolRoot":1
			},
			"mesh":9,
			"name":"Cube.012",
			"rotation":[
				-0.007834766060113907,
				0,
				0,
				0.9999693036079407
			],
			"scale":[
				0.27391308546066284,
				0.27391305565834045,
				0.27391305565834045
			],
			"translation":[
				0.00014775518502574414,
				0.017055995762348175,
				-0.0029146557208150625
			]
		},
		{
			"extras":{
				"ant_landscape":{}
			},
			"mesh":10,
			"name":"Cube.013",
			"scale":[
				0.0008838663343340158,
				0.0001727704075165093,
				0.0008838663343340158
			],
			"translation":[
				-0.39998674392700195,
				0.02613780088722706,
				-0.21253395080566406
			]
		},
		{
			"extras":{
				"ant_landscape":{}
			},
			"mesh":11,
			"name":"Cube.014",
			"scale":[
				0.0008795009925961494,
				0.0001727704075165093,
				0.0008795009925961494
			],
			"translation":[
				0.32058244943618774,
				0.026103559881448746,
				-0.21253395080566406
			]
		},
		{
			"extras":{
				"ant_landscape":{},
				"pov":{},
				"BoolToolRoot":1
			},
			"mesh":12,
			"name":"Cube.005",
			"rotation":[
				0.7076958417892456,
				0,
				0,
				0.7065172791481018
			],
			"scale":[
				1.0595546960830688,
				1.059554934501648,
				1.059554934501648
			],
			"translation":[
				0.0005697011947631836,
				-0.051165878772735596,
				-0.002031289041042328
			]
		},
		{
			"extras":{
				"pov":{},
				"ant_landscape":{}
			},
			"mesh":13,
			"name":"Text",
			"rotation":[
				0.7073206305503845,
				0,
				0,
				0.7068929076194763
			],
			"scale":[
				0.043921660631895065,
				0.04467129334807396,
				0.049326471984386444
			],
			"translation":[
				0.01002507470548153,
				0.06441298127174377,
				-0.0019869692623615265
			]
		},
		{
			"children":[
				13,
				14
			],
			"extras":{
				"ant_landscape":{}
			},
			"name":"Empty.001",
			"rotation":[
				-0.13114669919013977,
				0,
				0,
				0.9913630485534668
			],
			"scale":[
				0.25851714611053467,
				0.2585171163082123,
				0.2585171163082123
			],
			"translation":[
				0,
				0.02694014646112919,
				-0.280491441488266
			]
		},
		{
			"children":[
				1,
				2,
				3,
				4,
				5,
				6,
				7,
				8,
				9,
				10,
				11,
				12,
				15
			],
			"extras":{
				"ant_landscape":{},
				"blenderkit":{
					"is_generating_thumbnail":0,
					"has_thumbnail":1,
					"thumbnail_generating_state":"",
					"thumbnail":"//macbook blender kit.jpg",
					"category":14,
					"subcategory":1,
					"name":"Macbook pro/laptop",
					"name_changed":0,
					"name_old":"Macbook pro/laptop",
					"description":"cycles ready,macbook pro",
					"tags":"Public",
					"condition":1,
					"is_free":1,
					"texture_resolution_max":1960,
					"texture_resolution_min":669,
					"uv":1,
					"texture_count":4,
					"total_megapixels":6438601,
					"node_count":56,
					"engine":0,
					"is_procedural":0,
					"materials":"Material.003, body, black.002, screen, dark, glass.002, Material, Material.001, glass.003, Apple-logo, black.001, key, key.002, Face.069, Material.002, key.001, key.003, black, black.003, Material.006, Dark, Material.005, ",
					"shaders":"principled, emission, ",
					"dimensions":[
						0.4209077060222626,
						0.36626335978507996,
						0.2858957350254059
					],
					"bbox_min":[
						-0.21037720143795013,
						-0.1447160243988037,
						0.00042276582098565996
					],
					"bbox_max":[
						0.21053048968315125,
						0.22154735028743744,
						0.28631848096847534
					],
					"face_count":874373,
					"face_count_render":874373,
					"mesh_poly_type":1,
					"manifold":0,
					"modifiers":"",
					"object_count":16,
					"upload_state":"preparing upload",
					"report":"",
					"asset_base_id":"56476c57-9a90-4337-ae15-31b7bd743cf7",
					"id":"f12a722b-ba38-4000-bf49-f88dca9f12cc",
					"uploading":0,
					"pbr":0,
					"is_private":1,
					"verification_status":2,
					"manufacturer":"",
					"designer":"",
					"design_collection":"",
					"design_variant":""
				},
				"asset_data":{
					"access":"free",
					"accessLabel":"Free",
					"addonVersion":"1.0.32",
					"assetBaseId":"56476c57-9a90-4337-ae15-31b7bd743cf7",
					"assetType":"model",
					"author":{
						"aboutMe":"Create your 3D model now!! By simply click the link below to make your request.\r\nhttps://www.instagram.com/jayrenn_reeve/",
						"aboutMeUrl":"https://www.artstation.com/jayrennreeve2",
						"avatar128":"/avatar-redirect/1cd8b44e-d723-4aa1-b627-908b684e7847/128/",
						"firstName":"Jayrenn",
						"fullName":"Jayrenn Reeve",
						"gravatarHash":"ed3bf7cc8db1aaf7dff9aa9d143e8ae6",
						"id":"114910",
						"lastName":"Reeve"
					},
					"available_resolutions":[
						512,
						1024,
						2048
					],
					"basePrice":"",
					"bbox_max":[
						0.2105,
						0.2215,
						0.2863
					],
					"bbox_min":[
						-0.2104,
						-0.1447,
						0.0004
					],
					"canDownload":true,
					"canDownloadError":true,
					"category":"computer",
					"created":"2021-06-05T19:40:18.851408+02:00",
					"description":"cycles ready,macbook pro",
					"dictParameters":{
						"addons":true,
						"animated":false,
						"boundBoxMaxX":0.2105,
						"boundBoxMaxY":0.2215,
						"boundBoxMaxZ":0.2863,
						"boundBoxMinX":-0.2104,
						"boundBoxMinY":-0.1447,
						"boundBoxMinZ":0.0004,
						"condition":"new",
						"dimensionX":0.4209,
						"dimensionY":0.3663,
						"dimensionZ":0.2859,
						"engines":[
							"cycles"
						],
						"faceCount":874373,
						"faceCountRender":874373,
						"joinBlenderkitDiscounts":true,
						"manifold":false,
						"materials":[
							"Material.003",
							"body",
							"black.002",
							"screen",
							"dark",
							"glass.002",
							"Material",
							"Material.001",
							"glass.003",
							"Apple-logo",
							"black.001",
							"key",
							"key.002",
							"Face.069",
							"Material.002",
							"key.001",
							"key.003",
							"black",
							"black.003",
							"Material.006",
							"Dark",
							"Material.005"
						],
						"megapixels":6,
						"meshPolyType":"quad_dominant",
						"modelStyle":"realistic",
						"modifiers":[
							""
						],
						"nodeCount":56,
						"objectCount":16,
						"platforms":[
							"windows-x64",
							"macos-arm64",
							"linux-x64",
							"macos-x64",
							"windows-arm64"
						],
						"procedural":false,
						"productionLevel":"finished",
						"purePbr":false,
						"rig":false,
						"sexualizedContent":false,
						"shaders":[
							"principled",
							"emission"
						],
						"simulation":false,
						"textureCount":4,
						"textureResolutionMax":1960,
						"textureResolutionMin":669,
						"uv":true
					},
					"displayName":"Macbook pro/laptop",
					"downloaded":0,
					"files":[
						{
							"created":"2021-06-08T15:28:55.895268+02:00",
							"downloadUrl":"https://www.blenderkit.com/api/v1/downloads/64975/",
							"fileThumbnail":"",
							"fileThumbnailLarge":"",
							"fileType":"blend",
							"fileUploadSize":38630496,
							"filename":"assets/f12a722bba384000bf49f88dca9f12cc/files/blend_b3fe5e0b-ad3d-4c29-b71d-db13d4df46e4.blend",
							"modified":"2025-12-22T16:24:55.168177+01:00",
							"resolution":0,
							"thumbnailMiddleUrl":"",
							"thumbnailSmallUrl":"",
							"url":""
						},
						{
							"created":"2021-06-09T23:06:50.875862+02:00",
							"downloadUrl":"https://www.blenderkit.com/api/v1/downloads/65200/",
							"fileThumbnail":"",
							"fileThumbnailLarge":"",
							"fileType":"resolution_0_5K",
							"fileUploadSize":37957385,
							"filename":"assets/f12a722bba384000bf49f88dca9f12cc/files/resolution_0_5K_122f8992-571f-4bb7-842f-b7dd19b38f0a.blend",
							"modified":"2021-06-16T07:59:52.122330+02:00",
							"resolution":0,
							"thumbnailMiddleUrl":"",
							"thumbnailSmallUrl":"",
							"url":""
						},
						{
							"created":"2021-06-09T23:06:30.788513+02:00",
							"downloadUrl":"https://www.blenderkit.com/api/v1/downloads/65199/",
							"fileThumbnail":"",
							"fileThumbnailLarge":"",
							"fileType":"resolution_1K",
							"fileUploadSize":38097533,
							"filename":"assets/f12a722bba384000bf49f88dca9f12cc/files/resolution_1K_d2922d04-86f5-4edf-9f8b-37fa199e587a.blend",
							"modified":"2021-06-16T07:59:53.942539+02:00",
							"resolution":0,
							"thumbnailMiddleUrl":"",
							"thumbnailSmallUrl":"",
							"url":""
						},
						{
							"created":"2021-06-09T23:06:19.490274+02:00",
							"downloadUrl":"https://www.blenderkit.com/api/v1/downloads/65198/",
							"fileThumbnail":"",
							"fileThumbnailLarge":"",
							"fileType":"resolution_2K",
							"fileUploadSize":38572943,
							"filename":"assets/f12a722bba384000bf49f88dca9f12cc/files/resolution_2K_263f2bec-d080-41a5-92c4-892877949b4b.blend",
							"modified":"2021-06-16T07:59:55.742077+02:00",
							"resolution":0,
							"thumbnailMiddleUrl":"",
							"thumbnailSmallUrl":"",
							"url":"https://assets.blenderkit.com/assets/f12a722bba384000bf49f88dca9f12cc/files/resolution_2K_263f2bec-d080-41a5-92c4-892877949b4b.blend?verify=1779450339-YkZB1GiXMM6k%2BXk5Xhgnnpg36GeScVf%2FIvmfeV0sRpg%3D",
							"file_name":"C:\\Users\\awful\\blenderkit_data\\models\\macbook-pro-lapt_f12a722b-ba38-4000-bf49-f88dca9f12cc\\macbook-pro-laptop_2K_263f2bec-d080-41a5-92c4-892877949b4b.blend"
						},
						{
							"created":"2021-06-08T16:44:23.407545+02:00",
							"downloadUrl":"https://www.blenderkit.com/api/v1/downloads/64993/",
							"fileThumbnail":"https://public.blenderkit.com/thumbnails/assets/f12a722bba384000bf49f88dca9f12cc/files/thumbnail_f0efc7cf-2938-42c7-a578-9a9c68fe81e6.jpg.96x96_q85_crop-%2C.jpg",
							"fileThumbnailLarge":"https://public.blenderkit.com/thumbnails/assets/f12a722bba384000bf49f88dca9f12cc/files/thumbnail_f0efc7cf-2938-42c7-a578-9a9c68fe81e6.jpg.1024x1024_q85_crop-%2C.jpg",
							"fileType":"thumbnail",
							"fileUploadSize":269546,
							"filename":"assets/f12a722bba384000bf49f88dca9f12cc/files/thumbnail_f0efc7cf-2938-42c7-a578-9a9c68fe81e6.jpg",
							"modified":"2025-12-22T17:32:15.825569+01:00",
							"resolution":0,
							"thumbnailMiddleUrl":"https://public.blenderkit.com/thumbnails/assets/f12a722bba384000bf49f88dca9f12cc/files/thumbnail_f0efc7cf-2938-42c7-a578-9a9c68fe81e6.jpg.512x512_q85_crop-%2C.jpg",
							"thumbnailSmallUrl":"https://public.blenderkit.com/thumbnails/assets/f12a722bba384000bf49f88dca9f12cc/files/thumbnail_f0efc7cf-2938-42c7-a578-9a9c68fe81e6.jpg.256x256_q85_crop-%2C.jpg",
							"url":""
						}
					],
					"filesSize":149929,
					"id":"f12a722b-ba38-4000-bf49-f88dca9f12cc",
					"isForSale":false,
					"isFree":true,
					"isPrivate":false,
					"lastAnimatedThumbnailUpload":null,
					"lastBlendUpload":"2021-06-08T13:28:55.895268+00:00",
					"lastGltfGodotUpload":null,
					"lastGltfUpload":null,
					"lastPhotoThumbnailUpload":null,
					"lastResolutionUpload":"2021-06-09T21:06:50.875862+00:00",
					"lastThumbnailUpload":"2021-06-08T14:44:23.407545+00:00",
					"lastUserInteraction":"2021-06-08T16:43:44.060619+02:00",
					"lastVideoUpload":null,
					"lastZipFileUpload":"",
					"license":"royalty_free",
					"max_resolution":2048,
					"name":"Macbook pro/laptop",
					"pk":17649,
					"ratingsAverage":{
						"bookmarks":0.9749687108886108,
						"quality":8.807692307692308,
						"virtualPrice":null,
						"workingHours":15
					},
					"ratingsCount":{
						"bookmarks":799,
						"quality":26,
						"virtualPrice":0,
						"workingHours":18
					},
					"ratingsMedian":{
						"bookmarks":1,
						"quality":10,
						"virtualPrice":null,
						"workingHours":15
					},
					"ratingsSum":{
						"bookmarks":779,
						"quality":229,
						"score":1321.1538461538462,
						"virtualPrice":null,
						"workingHours":1051.8
					},
					"score":1321.1538461538462,
					"showMarketingLabels":true,
					"sourceAppName":"blender",
					"sourceAppVersion":"2.91.2",
					"tags":[
						"Public"
					],
					"thumbnail":"thumbnail_f0efc7cf-2938-42c7-a578-9a9c68fe81e6.jpg.512x512_q85_crop-%2C.jpg.webp",
					"thumbnailLargeUrl":"https://public.blenderkit.com/thumbnails/assets/f12a722bba384000bf49f88dca9f12cc/files/thumbnail_f0efc7cf-2938-42c7-a578-9a9c68fe81e6.jpg.1024x1024_q85_crop-%2C.jpg",
					"thumbnailLargeUrlNonsquared":"https://public.blenderkit.com/thumbnails/assets/f12a722bba384000bf49f88dca9f12cc/files/thumbnail_f0efc7cf-2938-42c7-a578-9a9c68fe81e6.jpg.1024x1024_q85.jpg",
					"thumbnailLargeUrlNonsquaredWebp":"https://public.blenderkit.com/thumbnails/assets/f12a722bba384000bf49f88dca9f12cc/files/thumbnail_f0efc7cf-2938-42c7-a578-9a9c68fe81e6.jpg.1024x1024_q85.jpg.webp?webp_generated=1766438773",
					"thumbnailLargeUrlWebp":"https://public.blenderkit.com/thumbnails/assets/f12a722bba384000bf49f88dca9f12cc/files/thumbnail_f0efc7cf-2938-42c7-a578-9a9c68fe81e6.jpg.1024x1024_q85_crop-%2C.jpg.webp?webp_generated=1766438773",
					"thumbnailMiddleUrl":"https://public.blenderkit.com/thumbnails/assets/f12a722bba384000bf49f88dca9f12cc/files/thumbnail_f0efc7cf-2938-42c7-a578-9a9c68fe81e6.jpg.512x512_q85_crop-%2C.jpg",
					"thumbnailMiddleUrlNonsquared":"https://public.blenderkit.com/thumbnails/assets/f12a722bba384000bf49f88dca9f12cc/files/thumbnail_f0efc7cf-2938-42c7-a578-9a9c68fe81e6.jpg.512x512_q85.jpg",
					"thumbnailMiddleUrlNonsquaredWebp":"https://public.blenderkit.com/thumbnails/assets/f12a722bba384000bf49f88dca9f12cc/files/thumbnail_f0efc7cf-2938-42c7-a578-9a9c68fe81e6.jpg.512x512_q85.jpg.webp?webp_generated=1766438773",
					"thumbnailMiddleUrlWebp":"https://public.blenderkit.com/thumbnails/assets/f12a722bba384000bf49f88dca9f12cc/files/thumbnail_f0efc7cf-2938-42c7-a578-9a9c68fe81e6.jpg.512x512_q85_crop-%2C.jpg.webp?webp_generated=1766438773",
					"thumbnailSmallUrl":"https://public.blenderkit.com/thumbnails/assets/f12a722bba384000bf49f88dca9f12cc/files/thumbnail_f0efc7cf-2938-42c7-a578-9a9c68fe81e6.jpg.256x256_q85_crop-%2C.jpg",
					"thumbnailSmallUrlNonsquared":"https://public.blenderkit.com/thumbnails/assets/f12a722bba384000bf49f88dca9f12cc/files/thumbnail_f0efc7cf-2938-42c7-a578-9a9c68fe81e6.jpg.256x256_q85.jpg",
					"thumbnailSmallUrlNonsquaredWebp":"https://public.blenderkit.com/thumbnails/assets/f12a722bba384000bf49f88dca9f12cc/files/thumbnail_f0efc7cf-2938-42c7-a578-9a9c68fe81e6.jpg.256x256_q85.jpg.webp?webp_generated=1766438773",
					"thumbnailSmallUrlWebp":"https://public.blenderkit.com/thumbnails/assets/f12a722bba384000bf49f88dca9f12cc/files/thumbnail_f0efc7cf-2938-42c7-a578-9a9c68fe81e6.jpg.256x256_q85_crop-%2C.jpg.webp?webp_generated=1766438773",
					"thumbnailXlargeUrl":"https://public.blenderkit.com/thumbnails/assets/f12a722bba384000bf49f88dca9f12cc/files/thumbnail_f0efc7cf-2938-42c7-a578-9a9c68fe81e6.jpg.2048x2048_q85_crop-%2C.jpg",
					"thumbnailXlargeUrlNonsquared":"https://public.blenderkit.com/thumbnails/assets/f12a722bba384000bf49f88dca9f12cc/files/thumbnail_f0efc7cf-2938-42c7-a578-9a9c68fe81e6.jpg.2048x2048_q85.jpg",
					"thumbnailXlargeUrlNonsquaredWebp":"https://public.blenderkit.com/thumbnails/assets/f12a722bba384000bf49f88dca9f12cc/files/thumbnail_f0efc7cf-2938-42c7-a578-9a9c68fe81e6.jpg.2048x2048_q85.jpg.webp?webp_generated=1766438773",
					"thumbnailXlargeUrlWebp":"https://public.blenderkit.com/thumbnails/assets/f12a722bba384000bf49f88dca9f12cc/files/thumbnail_f0efc7cf-2938-42c7-a578-9a9c68fe81e6.jpg.2048x2048_q85_crop-%2C.jpg.webp?webp_generated=1766438773",
					"thumbnail_small":"thumbnail_f0efc7cf-2938-42c7-a578-9a9c68fe81e6.jpg.256x256_q85_crop-%2C.jpg.webp",
					"tooltip_data":{
						"aname":"Macbook pro/laptop",
						"author_text":"by Jayrenn Reeve",
						"base_price_bg_color":[
							0.7,
							0.7,
							0.7,
							0.6
						],
						"base_price_color":[
							1.0,
							1.0,
							1.0,
							0.9
						],
						"base_price_text":"",
						"quality":"9",
						"user_price_bg_color":[
							0.7,
							0.7,
							0.7,
							0.6
						],
						"user_price_color":[
							1.0,
							1.0,
							1.0,
							0.9
						],
						"user_price_text":""
					},
					"url":"https://www.blenderkit.com/api/v1/assets/f12a722b-ba38-4000-bf49-f88dca9f12cc/",
					"verificationStatus":"validated",
					"versionNumber":1,
					"videoLink":"",
					"webpGeneratedTimestamp":1766438773,
					"resolution":"resolution_2K"
				}
			},
			"name":"Macbook pro/laptop",
			"scale":[
				0.5204713940620422,
				0.5204713940620422,
				0.5204713940620422
			]
		},
		{
			"extensions":{
				"KHR_lights_punctual":{
					"light":0
				}
			},
			"name":"Area",
			"rotation":[
				0.5783842206001282,
				0.8004654049873352,
				-0.1272621601819992,
				0.09236416965723038
			],
			"scale":[
				1.2282992601394653,
				1.2282993793487549,
				1.2282992601394653
			],
			"translation":[
				0.3966837525367737,
				0.22978530824184418,
				-0.6948360800743103
			]
		},
		{
			"name":"Area.001",
			"rotation":[
				0,
				-0.9916586875915527,
				0.12889237701892853,
				1.630019852427722e-07
			],
			"scale":[
				0.4018251895904541,
				0.2514256536960602,
				0.4018251597881317
			],
			"translation":[
				-0.0006985068321228027,
				0.15172871947288513,
				-0.18256479501724243
			]
		}
	],
	"cameras":[
		{
			"name":"Camera",
			"perspective":{
				"aspectRatio":1.7777777777777777,
				"yfov":0.8325964671760897,
				"zfar":100,
				"znear":0.10000000149011612
			},
			"type":"perspective"
		}
	],
	"materials":[
		{
			"doubleSided":true,
			"extensions":{
				"KHR_materials_specular":{
					"specularColorFactor":[
						2.0,
						2.0,
						2.0
					]
				},
				"KHR_materials_ior":{
					"ior":1.4500000476837158
				}
			},
			"extras":{
				"pov":{},
				"blenderkit":{
					"has_thumbnail":1,
					"thumbnail_generating_state":""
				}
			},
			"name":"body",
			"pbrMetallicRoughness":{
				"baseColorFactor":[
					1,
					0.39246082305908203,
					0,
					1
				],
				"roughnessFactor":0.501929759979248
			}
		},
		{
			"doubleSided":true,
			"extensions":{
				"KHR_materials_specular":{
					"specularColorFactor":[
						1.7333333492279053,
						1.7333333492279053,
						1.7333333492279053
					]
				},
				"KHR_materials_ior":{
					"ior":1.4500000476837158
				}
			},
			"extras":{
				"pov":{}
			},
			"name":"key",
			"pbrMetallicRoughness":{
				"baseColorFactor":[
					0,
					0,
					0,
					1
				],
				"metallicFactor":0.9000000357627869,
				"roughnessFactor":0.6625000238418579
			}
		},
		{
			"doubleSided":true,
			"extras":{
				"pov":{}
			},
			"name":"key.002",
			"pbrMetallicRoughness":{
				"metallicFactor":0.7969406247138977
			}
		},
		{
			"doubleSided":true,
			"name":"Material.006",
			"pbrMetallicRoughness":{
				"baseColorFactor":[
					0,
					0,
					0,
					1
				],
				"metallicFactor":0.762499988079071,
				"roughnessFactor":0
			}
		},
		{
			"doubleSided":true,
			"extensions":{
				"KHR_materials_specular":{
					"specularColorFactor":[
						1.316666603088379,
						1.316666603088379,
						1.316666603088379
					]
				},
				"KHR_materials_ior":{
					"ior":1.4500000476837158
				}
			},
			"extras":{
				"pov":{}
			},
			"name":"black.003",
			"pbrMetallicRoughness":{
				"baseColorFactor":[
					0.02909955009818077,
					0.02909955009818077,
					0.02909955009818077,
					1
				],
				"metallicFactor":0.8333333134651184,
				"roughnessFactor":0.5
			}
		},
		{
			"doubleSided":true,
			"extensions":{
				"KHR_materials_specular":{
					"specularColorFactor":[
						2.0,
						2.0,
						2.0
					]
				},
				"KHR_materials_ior":{
					"ior":1.4500000476837158
				}
			},
			"extras":{
				"pov":{}
			},
			"name":"black",
			"pbrMetallicRoughness":{
				"baseColorFactor":[
					0.11927590519189835,
					0.11927590519189835,
					0.11927590519189835,
					1
				],
				"roughnessFactor":0.24166667461395264
			}
		},
		{
			"doubleSided":true,
			"extensions":{
				"KHR_materials_specular":{
					"specularFactor":0.08333331346511841
				},
				"KHR_materials_ior":{
					"ior":1.4500000476837158
				}
			},
			"extras":{
				"pov":{}
			},
			"name":"Dark",
			"pbrMetallicRoughness":{
				"baseColorFactor":[
					0.0010314405662938952,
					0.0010314405662938952,
					0.0010314405662938952,
					1
				],
				"metallicFactor":0,
				"roughnessFactor":0.5
			}
		},
		{
			"doubleSided":true,
			"name":"Material.007",
			"pbrMetallicRoughness":{
				"baseColorFactor":[
					0.326375812292099,
					0.326375812292099,
					0.326375812292099,
					1
				],
				"roughnessFactor":0.8317307829856873
			}
		},
		{
			"doubleSided":true,
			"extras":{
				"pov":{}
			},
			"name":"black.001",
			"pbrMetallicRoughness":{
				"baseColorFactor":[
					0.004895585589110851,
					0.004895585589110851,
					0.004895585589110851,
					1
				],
				"metallicFactor":0,
				"roughnessFactor":0.5
			}
		},
		{
			"doubleSided":true,
			"extras":{
				"pov":{}
			},
			"name":"black.002",
			"pbrMetallicRoughness":{
				"baseColorFactor":[
					0,
					0,
					0,
					1
				],
				"metallicFactor":0,
				"roughnessFactor":0.5
			}
		},
		{
			"doubleSided":true,
			"emissiveFactor":[
				1,
				1,
				1
			],
			"extensions":{
				"KHR_materials_emissive_strength":{
					"emissiveStrength":2
				}
			},
			"extras":{
				"pov":{}
			},
			"name":"screen",
			"pbrMetallicRoughness":{
				"baseColorFactor":[
					0,
					0,
					0,
					1
				]
			}
		},
		{
			"doubleSided":true,
			"extensions":{
				"KHR_materials_specular":{
					"specularFactor":0.6333333253860474
				},
				"KHR_materials_ior":{
					"ior":1.4500000476837158
				}
			},
			"extras":{
				"pov":{}
			},
			"name":"dark",
			"pbrMetallicRoughness":{
				"baseColorFactor":[
					0.010021845810115337,
					0.010021845810115337,
					0.010021845810115337,
					1
				],
				"roughnessFactor":0.09999999403953552
			}
		},
		{
			"alphaMode":"BLEND",
			"doubleSided":true,
			"extensions":{
				"KHR_materials_transmission":{
					"transmissionFactor":1
				},
				"KHR_materials_ior":{
					"ior":1.4500000476837158
				}
			},
			"name":"glass.002",
			"pbrMetallicRoughness":{
				"baseColorFactor":[
					1,
					1,
					1,
					0.30000001192092896
				],
				"metallicFactor":0,
				"roughnessFactor":0
			}
		},
		{
			"doubleSided":true,
			"name":"Material.004",
			"pbrMetallicRoughness":{
				"baseColorFactor":[
					0,
					0,
					0,
					1
				],
				"metallicFactor":0.692307710647583,
				"roughnessFactor":0
			}
		},
		{
			"doubleSided":true,
			"extensions":{
				"KHR_materials_transmission":{
					"transmissionFactor":1
				},
				"KHR_materials_ior":{
					"ior":1.4500000476837158
				}
			},
			"name":"Material.005",
			"pbrMetallicRoughness":{
				"baseColorFactor":[
					0,
					0.06781090050935745,
					0.8000000715255737,
					1
				],
				"roughnessFactor":0
			}
		},
		{
			"alphaMode":"BLEND",
			"doubleSided":true,
			"extensions":{
				"KHR_materials_transmission":{
					"transmissionFactor":1
				},
				"KHR_materials_ior":{
					"ior":1.4500000476837158
				}
			},
			"name":"glass.003",
			"pbrMetallicRoughness":{
				"baseColorFactor":[
					0.011087636463344097,
					0.011087636463344097,
					0.011087636463344097,
					0.20000000298023224
				],
				"metallicFactor":0,
				"roughnessFactor":0
			}
		},
		{
			"alphaMode":"BLEND",
			"doubleSided":true,
			"name":"Apple-logo",
			"pbrMetallicRoughness":{
				"metallicFactor":0
			}
		},
		{
			"doubleSided":true,
			"extensions":{
				"KHR_materials_specular":{
					"specularColorFactor":[
						2.0,
						2.0,
						2.0
					]
				},
				"KHR_materials_ior":{
					"ior":1.4500000476837158
				}
			},
			"extras":{
				"pov":{}
			},
			"name":"Material.003",
			"pbrMetallicRoughness":{
				"metallicFactor":0.9916666746139526,
				"roughnessFactor":0.4000000059604645
			}
		}
	],
	"meshes":[
		{
			"name":"Cube.002",
			"primitives":[
				{
					"attributes":{
						"POSITION":0,
						"NORMAL":1,
						"TEXCOORD_0":2
					},
					"indices":3,
					"material":0
				}
			]
		},
		{
			"name":"Cube.013",
			"primitives":[
				{
					"attributes":{
						"POSITION":4,
						"NORMAL":5,
						"TEXCOORD_0":6
					},
					"indices":7,
					"material":1
				},
				{
					"attributes":{
						"POSITION":4,
						"NORMAL":5,
						"TEXCOORD_0":6
					},
					"indices":8,
					"material":2
				},
				{
					"attributes":{
						"POSITION":4,
						"NORMAL":5,
						"TEXCOORD_0":6
					},
					"indices":9,
					"material":3
				}
			]
		},
		{
			"name":"Cube.003",
			"primitives":[
				{
					"attributes":{
						"POSITION":10,
						"NORMAL":11,
						"TEXCOORD_0":12
					},
					"indices":13,
					"material":4
				}
			]
		},
		{
			"name":"Cube.006",
			"primitives":[
				{
					"attributes":{
						"POSITION":14,
						"NORMAL":15,
						"TEXCOORD_0":16
					},
					"indices":17,
					"material":5
				}
			]
		},
		{
			"name":"Cube.007",
			"primitives":[
				{
					"attributes":{
						"POSITION":18,
						"NORMAL":19,
						"TEXCOORD_0":20
					},
					"indices":17,
					"material":5
				}
			]
		},
		{
			"name":"Cube.008",
			"primitives":[
				{
					"attributes":{
						"POSITION":21,
						"NORMAL":22,
						"TEXCOORD_0":23
					},
					"indices":13,
					"material":4
				}
			]
		},
		{
			"name":"Cube.009",
			"primitives":[
				{
					"attributes":{
						"POSITION":24,
						"NORMAL":25,
						"TEXCOORD_0":26
					},
					"indices":17,
					"material":5
				}
			]
		},
		{
			"name":"Cube.010",
			"primitives":[
				{
					"attributes":{
						"POSITION":27,
						"NORMAL":28,
						"TEXCOORD_0":29
					},
					"indices":17,
					"material":5
				}
			]
		},
		{
			"name":"Cube.017",
			"primitives":[
				{
					"attributes":{
						"POSITION":30,
						"NORMAL":31,
						"TEXCOORD_0":32
					},
					"indices":33,
					"material":1
				}
			]
		},
		{
			"name":"Cube.005",
			"primitives":[
				{
					"attributes":{
						"POSITION":34,
						"NORMAL":35,
						"TEXCOORD_0":36
					},
					"indices":37,
					"material":0
				},
				{
					"attributes":{
						"POSITION":34,
						"NORMAL":35,
						"TEXCOORD_0":36
					},
					"indices":38,
					"material":6
				},
				{
					"attributes":{
						"POSITION":34,
						"NORMAL":35,
						"TEXCOORD_0":36
					},
					"indices":39,
					"material":7
				}
			]
		},
		{
			"name":"Cube.014",
			"primitives":[
				{
					"attributes":{
						"POSITION":40,
						"NORMAL":41,
						"TEXCOORD_0":42
					},
					"indices":43,
					"material":0
				}
			]
		},
		{
			"name":"Cube.015",
			"primitives":[
				{
					"attributes":{
						"POSITION":44,
						"NORMAL":45,
						"TEXCOORD_0":46
					},
					"indices":47,
					"material":0
				},
				{
					"attributes":{
						"POSITION":44,
						"NORMAL":45,
						"TEXCOORD_0":46
					},
					"indices":48,
					"material":8
				}
			]
		},
		{
			"name":"Cube.004",
			"primitives":[
				{
					"attributes":{
						"POSITION":49,
						"NORMAL":50,
						"TEXCOORD_0":51
					},
					"indices":52,
					"material":0
				},
				{
					"attributes":{
						"POSITION":49,
						"NORMAL":50,
						"TEXCOORD_0":51
					},
					"indices":53,
					"material":9
				},
				{
					"attributes":{
						"POSITION":49,
						"NORMAL":50,
						"TEXCOORD_0":51
					},
					"indices":54,
					"material":10
				},
				{
					"attributes":{
						"POSITION":49,
						"NORMAL":50,
						"TEXCOORD_0":51
					},
					"indices":55,
					"material":11
				},
				{
					"attributes":{
						"POSITION":49,
						"NORMAL":50,
						"TEXCOORD_0":51
					},
					"indices":56,
					"material":12
				},
				{
					"attributes":{
						"POSITION":49,
						"NORMAL":50,
						"TEXCOORD_0":51
					},
					"indices":57,
					"material":13
				},
				{
					"attributes":{
						"POSITION":49,
						"NORMAL":50,
						"TEXCOORD_0":51
					},
					"indices":58,
					"material":14
				},
				{
					"attributes":{
						"POSITION":49,
						"NORMAL":50,
						"TEXCOORD_0":51
					},
					"indices":59,
					"material":15
				},
				{
					"attributes":{
						"POSITION":49,
						"NORMAL":50,
						"TEXCOORD_0":51
					},
					"indices":60,
					"material":16
				}
			]
		},
		{
			"name":"Text",
			"primitives":[
				{
					"attributes":{
						"POSITION":61,
						"NORMAL":62,
						"TEXCOORD_0":63,
						"TANGENT":64
					},
					"indices":65,
					"material":17
				}
			]
		}
	],
	"accessors":[
		{
			"bufferView":0,
			"componentType":5126,
			"count":4131,
			"max":[
				1.4876115322113037,
				0.01527327299118042,
				0.9296367168426514
			],
			"min":[
				-1.4876070022583008,
				-0.015265583992004395,
				-0.929635226726532
			],
			"type":"VEC3"
		},
		{
			"bufferView":1,
			"componentType":5126,
			"count":4131,
			"type":"VEC3"
		},
		{
			"bufferView":2,
			"componentType":5126,
			"count":4131,
			"type":"VEC2"
		},
		{
			"bufferView":3,
			"componentType":5123,
			"count":21156,
			"type":"SCALAR"
		},
		{
			"bufferView":4,
			"componentType":5126,
			"count":140700,
			"max":[
				1.1764651536941528,
				0.0025019189342856407,
				0.43437623977661133
			],
			"min":[
				-1.2177298069000244,
				-0.013203558512032032,
				-0.4734741449356079
			],
			"type":"VEC3"
		},
		{
			"bufferView":5,
			"componentType":5126,
			"count":140700,
			"type":"VEC3"
		},
		{
			"bufferView":6,
			"componentType":5126,
			"count":140700,
			"type":"VEC2"
		},
		{
			"bufferView":7,
			"componentType":5125,
			"count":725856,
			"type":"SCALAR"
		},
		{
			"bufferView":8,
			"componentType":5125,
			"count":15990,
			"type":"SCALAR"
		},
		{
			"bufferView":9,
			"componentType":5125,
			"count":246,
			"type":"SCALAR"
		},
		{
			"bufferView":10,
			"componentType":5126,
			"count":7224,
			"max":[
				1.3991364240646362,
				0.3081660270690918,
				1.044765830039978
			],
			"min":[
				-1,
				-0.324444055557251,
				-1.0203481912612915
			],
			"type":"VEC3"
		},
		{
			"bufferView":11,
			"componentType":5126,
			"count":7224,
			"type":"VEC3"
		},
		{
			"bufferView":12,
			"componentType":5126,
			"count":7224,
			"type":"VEC2"
		},
		{
			"bufferView":13,
			"componentType":5123,
			"count":11076,
			"type":"SCALAR"
		},
		{
			"bufferView":14,
			"componentType":5126,
			"count":50568,
			"max":[
				1.3991364240646362,
				0.3081660270690918,
				13.435449600219727
			],
			"min":[
				-1,
				-0.324444055557251,
				-1.0203481912612915
			],
			"type":"VEC3"
		},
		{
			"bufferView":15,
			"componentType":5126,
			"count":50568,
			"type":"VEC3"
		},
		{
			"bufferView":16,
			"componentType":5126,
			"count":50568,
			"type":"VEC2"
		},
		{
			"bufferView":17,
			"componentType":5123,
			"count":77532,
			"type":"SCALAR"
		},
		{
			"bufferView":18,
			"componentType":5126,
			"count":50568,
			"max":[
				1.3991364240646362,
				0.3081660270690918,
				13.435449600219727
			],
			"min":[
				-1,
				-0.324444055557251,
				-1.0203481912612915
			],
			"type":"VEC3"
		},
		{
			"bufferView":19,
			"componentType":5126,
			"count":50568,
			"type":"VEC3"
		},
		{
			"bufferView":20,
			"componentType":5126,
			"count":50568,
			"type":"VEC2"
		},
		{
			"bufferView":21,
			"componentType":5126,
			"count":7224,
			"max":[
				1.3991364240646362,
				0.3081660270690918,
				1.044765830039978
			],
			"min":[
				-1,
				-0.324444055557251,
				-1.0203481912612915
			],
			"type":"VEC3"
		},
		{
			"bufferView":22,
			"componentType":5126,
			"count":7224,
			"type":"VEC3"
		},
		{
			"bufferView":23,
			"componentType":5126,
			"count":7224,
			"type":"VEC2"
		},
		{
			"bufferView":24,
			"componentType":5126,
			"count":50568,
			"max":[
				1.3991364240646362,
				0.3081660270690918,
				13.435449600219727
			],
			"min":[
				-1,
				-0.324444055557251,
				-1.0203481912612915
			],
			"type":"VEC3"
		},
		{
			"bufferView":25,
			"componentType":5126,
			"count":50568,
			"type":"VEC3"
		},
		{
			"bufferView":26,
			"componentType":5126,
			"count":50568,
			"type":"VEC2"
		},
		{
			"bufferView":27,
			"componentType":5126,
			"count":50568,
			"max":[
				1.3991364240646362,
				0.3081660270690918,
				13.435449600219727
			],
			"min":[
				-1,
				-0.324444055557251,
				-1.0203481912612915
			],
			"type":"VEC3"
		},
		{
			"bufferView":28,
			"componentType":5126,
			"count":50568,
			"type":"VEC3"
		},
		{
			"bufferView":29,
			"componentType":5126,
			"count":50568,
			"type":"VEC2"
		},
		{
			"bufferView":30,
			"componentType":5126,
			"count":27720,
			"max":[
				0.6560313105583191,
				-0.012606022879481316,
				0.7188987731933594
			],
			"min":[
				-1.7381633520126343,
				-0.0467328205704689,
				-0.1889515221118927
			],
			"type":"VEC3"
		},
		{
			"bufferView":31,
			"componentType":5126,
			"count":27720,
			"type":"VEC3"
		},
		{
			"bufferView":32,
			"componentType":5126,
			"count":27720,
			"type":"VEC2"
		},
		{
			"bufferView":33,
			"componentType":5123,
			"count":82764,
			"type":"SCALAR"
		},
		{
			"bufferView":34,
			"componentType":5126,
			"count":58342,
			"max":[
				1.4762049913406372,
				0.04891091585159302,
				1.0256692171096802
			],
			"min":[
				-1.4762086868286133,
				-0.052063651382923126,
				-1.0062332153320312
			],
			"type":"VEC3"
		},
		{
			"bufferView":35,
			"componentType":5126,
			"count":58342,
			"type":"VEC3"
		},
		{
			"bufferView":36,
			"componentType":5126,
			"count":58342,
			"type":"VEC2"
		},
		{
			"bufferView":37,
			"componentType":5123,
			"count":229923,
			"type":"SCALAR"
		},
		{
			"bufferView":38,
			"componentType":5123,
			"count":2157,
			"type":"SCALAR"
		},
		{
			"bufferView":39,
			"componentType":5123,
			"count":2100,
			"type":"SCALAR"
		},
		{
			"bufferView":40,
			"componentType":5126,
			"count":1241356,
			"max":[
				91,
				1,
				261
			],
			"min":[
				-1,
				-1,
				-1
			],
			"type":"VEC3"
		},
		{
			"bufferView":41,
			"componentType":5126,
			"count":1241356,
			"type":"VEC3"
		},
		{
			"bufferView":42,
			"componentType":5126,
			"count":1241356,
			"type":"VEC2"
		},
		{
			"bufferView":43,
			"componentType":5125,
			"count":3543288,
			"type":"SCALAR"
		},
		{
			"bufferView":44,
			"componentType":5126,
			"count":1241356,
			"max":[
				91,
				1,
				261
			],
			"min":[
				-1,
				-1,
				-1
			],
			"type":"VEC3"
		},
		{
			"bufferView":45,
			"componentType":5126,
			"count":1241356,
			"type":"VEC3"
		},
		{
			"bufferView":46,
			"componentType":5126,
			"count":1241356,
			"type":"VEC2"
		},
		{
			"bufferView":47,
			"componentType":5125,
			"count":1446240,
			"type":"SCALAR"
		},
		{
			"bufferView":48,
			"componentType":5125,
			"count":2097048,
			"type":"SCALAR"
		},
		{
			"bufferView":49,
			"componentType":5126,
			"count":19495,
			"max":[
				1.4762067794799805,
				0.0007726443000137806,
				0.0048370361328125
			],
			"min":[
				-1.4762067794799805,
				-0.04246046766638756,
				-2.0270652770996094
			],
			"type":"VEC3"
		},
		{
			"bufferView":50,
			"componentType":5126,
			"count":19495,
			"type":"VEC3"
		},
		{
			"bufferView":51,
			"componentType":5126,
			"count":19495,
			"type":"VEC2"
		},
		{
			"bufferView":52,
			"componentType":5123,
			"count":95022,
			"type":"SCALAR"
		},
		{
			"bufferView":53,
			"componentType":5123,
			"count":24,
			"type":"SCALAR"
		},
		{
			"bufferView":54,
			"componentType":5123,
			"count":288,
			"type":"SCALAR"
		},
		{
			"bufferView":55,
			"componentType":5123,
			"count":606,
			"type":"SCALAR"
		},
		{
			"bufferView":56,
			"componentType":5123,
			"count":6,
			"type":"SCALAR"
		},
		{
			"bufferView":57,
			"componentType":5123,
			"count":768,
			"type":"SCALAR"
		},
		{
			"bufferView":58,
			"componentType":5123,
			"count":2880,
			"type":"SCALAR"
		},
		{
			"bufferView":59,
			"componentType":5123,
			"count":90,
			"type":"SCALAR"
		},
		{
			"bufferView":60,
			"componentType":5123,
			"count":1536,
			"type":"SCALAR"
		},
		{
			"bufferView":61,
			"componentType":5126,
			"count":3218,
			"max":[
				2.7240002155303955,
				0.009999999776482582,
				0.34550002217292786
			],
			"min":[
				-2.632000207901001,
				-0.009999999776482582,
				-0.34550002217292786
			],
			"type":"VEC3"
		},
		{
			"bufferView":62,
			"componentType":5126,
			"count":3218,
			"type":"VEC3"
		},
		{
			"bufferView":63,
			"componentType":5126,
			"count":3218,
			"type":"VEC2"
		},
		{
			"bufferView":64,
			"componentType":5126,
			"count":3218,
			"type":"VEC4"
		},
		{
			"bufferView":65,
			"componentType":5123,
			"count":9492,
			"type":"SCALAR"
		}
	],
	"bufferViews":[
		{
			"buffer":0,
			"byteLength":49572,
			"byteOffset":0,
			"target":34962
		},
		{
			"buffer":0,
			"byteLength":49572,
			"byteOffset":49572,
			"target":34962
		},
		{
			"buffer":0,
			"byteLength":33048,
			"byteOffset":99144,
			"target":34962
		},
		{
			"buffer":0,
			"byteLength":42312,
			"byteOffset":132192,
			"target":34963
		},
		{
			"buffer":0,
			"byteLength":1688400,
			"byteOffset":174504,
			"target":34962
		},
		{
			"buffer":0,
			"byteLength":1688400,
			"byteOffset":1862904,
			"target":34962
		},
		{
			"buffer":0,
			"byteLength":1125600,
			"byteOffset":3551304,
			"target":34962
		},
		{
			"buffer":0,
			"byteLength":2903424,
			"byteOffset":4676904,
			"target":34963
		},
		{
			"buffer":0,
			"byteLength":63960,
			"byteOffset":7580328,
			"target":34963
		},
		{
			"buffer":0,
			"byteLength":984,
			"byteOffset":7644288,
			"target":34963
		},
		{
			"buffer":0,
			"byteLength":86688,
			"byteOffset":7645272,
			"target":34962
		},
		{
			"buffer":0,
			"byteLength":86688,
			"byteOffset":7731960,
			"target":34962
		},
		{
			"buffer":0,
			"byteLength":57792,
			"byteOffset":7818648,
			"target":34962
		},
		{
			"buffer":0,
			"byteLength":22152,
			"byteOffset":7876440,
			"target":34963
		},
		{
			"buffer":0,
			"byteLength":606816,
			"byteOffset":7898592,
			"target":34962
		},
		{
			"buffer":0,
			"byteLength":606816,
			"byteOffset":8505408,
			"target":34962
		},
		{
			"buffer":0,
			"byteLength":404544,
			"byteOffset":9112224,
			"target":34962
		},
		{
			"buffer":0,
			"byteLength":155064,
			"byteOffset":9516768,
			"target":34963
		},
		{
			"buffer":0,
			"byteLength":606816,
			"byteOffset":9671832,
			"target":34962
		},
		{
			"buffer":0,
			"byteLength":606816,
			"byteOffset":10278648,
			"target":34962
		},
		{
			"buffer":0,
			"byteLength":404544,
			"byteOffset":10885464,
			"target":34962
		},
		{
			"buffer":0,
			"byteLength":86688,
			"byteOffset":11290008,
			"target":34962
		},
		{
			"buffer":0,
			"byteLength":86688,
			"byteOffset":11376696,
			"target":34962
		},
		{
			"buffer":0,
			"byteLength":57792,
			"byteOffset":11463384,
			"target":34962
		},
		{
			"buffer":0,
			"byteLength":606816,
			"byteOffset":11521176,
			"target":34962
		},
		{
			"buffer":0,
			"byteLength":606816,
			"byteOffset":12127992,
			"target":34962
		},
		{
			"buffer":0,
			"byteLength":404544,
			"byteOffset":12734808,
			"target":34962
		},
		{
			"buffer":0,
			"byteLength":606816,
			"byteOffset":13139352,
			"target":34962
		},
		{
			"buffer":0,
			"byteLength":606816,
			"byteOffset":13746168,
			"target":34962
		},
		{
			"buffer":0,
			"byteLength":404544,
			"byteOffset":14352984,
			"target":34962
		},
		{
			"buffer":0,
			"byteLength":332640,
			"byteOffset":14757528,
			"target":34962
		},
		{
			"buffer":0,
			"byteLength":332640,
			"byteOffset":15090168,
			"target":34962
		},
		{
			"buffer":0,
			"byteLength":221760,
			"byteOffset":15422808,
			"target":34962
		},
		{
			"buffer":0,
			"byteLength":165528,
			"byteOffset":15644568,
			"target":34963
		},
		{
			"buffer":0,
			"byteLength":700104,
			"byteOffset":15810096,
			"target":34962
		},
		{
			"buffer":0,
			"byteLength":700104,
			"byteOffset":16510200,
			"target":34962
		},
		{
			"buffer":0,
			"byteLength":466736,
			"byteOffset":17210304,
			"target":34962
		},
		{
			"buffer":0,
			"byteLength":459846,
			"byteOffset":17677040,
			"target":34963
		},
		{
			"buffer":0,
			"byteLength":4314,
			"byteOffset":18136888,
			"target":34963
		},
		{
			"buffer":0,
			"byteLength":4200,
			"byteOffset":18141204,
			"target":34963
		},
		{
			"buffer":0,
			"byteLength":14896272,
			"byteOffset":18145404,
			"target":34962
		},
		{
			"buffer":0,
			"byteLength":14896272,
			"byteOffset":33041676,
			"target":34962
		},
		{
			"buffer":0,
			"byteLength":9930848,
			"byteOffset":47937948,
			"target":34962
		},
		{
			"buffer":0,
			"byteLength":14173152,
			"byteOffset":57868796,
			"target":34963
		},
		{
			"buffer":0,
			"byteLength":14896272,
			"byteOffset":72041948,
			"target":34962
		},
		{
			"buffer":0,
			"byteLength":14896272,
			"byteOffset":86938220,
			"target":34962
		},
		{
			"buffer":0,
			"byteLength":9930848,
			"byteOffset":101834492,
			"target":34962
		},
		{
			"buffer":0,
			"byteLength":5784960,
			"byteOffset":111765340,
			"target":34963
		},
		{
			"buffer":0,
			"byteLength":8388192,
			"byteOffset":117550300,
			"target":34963
		},
		{
			"buffer":0,
			"byteLength":233940,
			"byteOffset":125938492,
			"target":34962
		},
		{
			"buffer":0,
			"byteLength":233940,
			"byteOffset":126172432,
			"target":34962
		},
		{
			"buffer":0,
			"byteLength":155960,
			"byteOffset":126406372,
			"target":34962
		},
		{
			"buffer":0,
			"byteLength":190044,
			"byteOffset":126562332,
			"target":34963
		},
		{
			"buffer":0,
			"byteLength":48,
			"byteOffset":126752376,
			"target":34963
		},
		{
			"buffer":0,
			"byteLength":576,
			"byteOffset":126752424,
			"target":34963
		},
		{
			"buffer":0,
			"byteLength":1212,
			"byteOffset":126753000,
			"target":34963
		},
		{
			"buffer":0,
			"byteLength":12,
			"byteOffset":126754212,
			"target":34963
		},
		{
			"buffer":0,
			"byteLength":1536,
			"byteOffset":126754224,
			"target":34963
		},
		{
			"buffer":0,
			"byteLength":5760,
			"byteOffset":126755760,
			"target":34963
		},
		{
			"buffer":0,
			"byteLength":180,
			"byteOffset":126761520,
			"target":34963
		},
		{
			"buffer":0,
			"byteLength":3072,
			"byteOffset":126761700,
			"target":34963
		},
		{
			"buffer":0,
			"byteLength":38616,
			"byteOffset":126764772,
			"target":34962
		},
		{
			"buffer":0,
			"byteLength":38616,
			"byteOffset":126803388,
			"target":34962
		},
		{
			"buffer":0,
			"byteLength":25744,
			"byteOffset":126842004,
			"target":34962
		},
		{
			"buffer":0,
			"byteLength":51488,
			"byteOffset":126867748,
			"target":34962
		},
		{
			"buffer":0,
			"byteLength":18984,
			"byteOffset":126919236,
			"target":34963
		}
	],
	"buffers":[
		{
			"byteLength":126938220,
			"uri":"untitled.bin"
		}
	]
}
